M48
METRIC,TZ
T1C0.400
T2C1.000
T3C3.000
%
G90
G05
T1
X117348Y-76708
X119126Y-107696
X123698Y-84519
X124206Y-98298
X124968Y-112014
X125222Y-92710
X127826Y-86233
X128270Y-107950
X130175Y-78931
X133604Y-128016
X134112Y-85090
X136652Y-125730
X137986Y-94488
X141732Y-86614
X145606Y-86169
X147193Y-79756
X148971Y-76708
X149860Y-125222
X150006Y-70219
X150686Y-92964
X152146Y-85598
X152273Y-72707
X153987Y-101409
X154686Y-94171
X155448Y-105410
X156274Y-79312
X158306Y-84899
X160274Y-127508
X162560Y-98552
X162814Y-112522
X164592Y-87122
X167894Y-107696
X170624Y-78486
X170942Y-86868
X176784Y-86106
T2
X142900Y-47142
X145440Y-47142
X147980Y-47142
X150520Y-47142
T3
X157632Y-139624
X177673Y-46418
X116078Y-46418
X136144Y-139624
T0
M30
