G04 #@! TF.GenerationSoftware,KiCad,Pcbnew,5.0.2+dfsg1-1~bpo9+1*
G04 #@! TF.CreationDate,2019-01-24T11:26:08+00:00*
G04 #@! TF.ProjectId,zeroboy_new_front,7a65726f-626f-4795-9f6e-65775f66726f,rev?*
G04 #@! TF.SameCoordinates,Original*
G04 #@! TF.FileFunction,Copper,L2,Bot*
G04 #@! TF.FilePolarity,Positive*
%FSLAX46Y46*%
G04 Gerber Fmt 4.6, Leading zero omitted, Abs format (unit mm)*
G04 Created by KiCad (PCBNEW 5.0.2+dfsg1-1~bpo9+1) date Thu 24 Jan 2019 11:26:08 GMT*
%MOMM*%
%LPD*%
G01*
G04 APERTURE LIST*
G04 #@! TA.AperFunction,SMDPad,CuDef*
%ADD10R,1.000000X2.300000*%
G04 #@! TD*
G04 #@! TA.AperFunction,ComponentPad*
%ADD11C,3.500000*%
G04 #@! TD*
G04 #@! TA.AperFunction,Conductor*
%ADD12C,0.100000*%
G04 #@! TD*
G04 #@! TA.AperFunction,SMDPad,CuDef*
%ADD13C,1.250000*%
G04 #@! TD*
G04 #@! TA.AperFunction,ComponentPad*
%ADD14C,1.600000*%
G04 #@! TD*
G04 #@! TA.AperFunction,ViaPad*
%ADD15C,0.800000*%
G04 #@! TD*
G04 #@! TA.AperFunction,Conductor*
%ADD16C,0.250000*%
G04 #@! TD*
G04 #@! TA.AperFunction,Conductor*
%ADD17C,0.500000*%
G04 #@! TD*
G04 #@! TA.AperFunction,Conductor*
%ADD18C,0.254000*%
G04 #@! TD*
G04 APERTURE END LIST*
D10*
G04 #@! TO.P,J1,1*
G04 #@! TO.N,Net-(J1-Pad1)*
X170986500Y-82009000D03*
G04 #@! TO.P,J1,2*
G04 #@! TO.N,Net-(J1-Pad2)*
X170986500Y-89629000D03*
G04 #@! TO.P,J1,3*
G04 #@! TO.N,Net-(J1-Pad3)*
X168446500Y-82009000D03*
G04 #@! TO.P,J1,4*
G04 #@! TO.N,Net-(J1-Pad4)*
X168446500Y-89629000D03*
G04 #@! TO.P,J1,5*
G04 #@! TO.N,Net-(J1-Pad5)*
X165906500Y-82009000D03*
G04 #@! TO.P,J1,6*
G04 #@! TO.N,Net-(J1-Pad6)*
X165906500Y-89629000D03*
G04 #@! TO.P,J1,7*
G04 #@! TO.N,Net-(J1-Pad7)*
X163366500Y-82009000D03*
G04 #@! TO.P,J1,8*
G04 #@! TO.N,Net-(J1-Pad8)*
X163366500Y-89629000D03*
G04 #@! TO.P,J1,9*
G04 #@! TO.N,Net-(J1-Pad9)*
X160826500Y-82009000D03*
G04 #@! TO.P,J1,10*
G04 #@! TO.N,Net-(J1-Pad10)*
X160826500Y-89629000D03*
G04 #@! TO.P,J1,11*
G04 #@! TO.N,Net-(J1-Pad11)*
X158286500Y-82009000D03*
G04 #@! TO.P,J1,12*
G04 #@! TO.N,Net-(J1-Pad12)*
X158286500Y-89629000D03*
G04 #@! TO.P,J1,13*
G04 #@! TO.N,Net-(J1-Pad13)*
X155746500Y-82009000D03*
G04 #@! TO.P,J1,14*
G04 #@! TO.N,Net-(J1-Pad14)*
X155746500Y-89629000D03*
G04 #@! TO.P,J1,15*
G04 #@! TO.N,Net-(J1-Pad15)*
X153206500Y-82009000D03*
G04 #@! TO.P,J1,16*
G04 #@! TO.N,Net-(J1-Pad16)*
X153206500Y-89629000D03*
G04 #@! TO.P,J1,17*
G04 #@! TO.N,Net-(J1-Pad17)*
X150666500Y-82009000D03*
G04 #@! TO.P,J1,18*
G04 #@! TO.N,Net-(J1-Pad18)*
X150666500Y-89629000D03*
G04 #@! TO.P,J1,19*
G04 #@! TO.N,Net-(J1-Pad19)*
X148126500Y-82009000D03*
G04 #@! TO.P,J1,20*
G04 #@! TO.N,Net-(J1-Pad20)*
X148126500Y-89629000D03*
G04 #@! TO.P,J1,21*
G04 #@! TO.N,Net-(J1-Pad21)*
X145586500Y-82009000D03*
G04 #@! TO.P,J1,22*
G04 #@! TO.N,Net-(J1-Pad22)*
X145586500Y-89629000D03*
G04 #@! TO.P,J1,23*
G04 #@! TO.N,Net-(J1-Pad23)*
X143046500Y-82009000D03*
G04 #@! TO.P,J1,24*
G04 #@! TO.N,Net-(J1-Pad24)*
X143046500Y-89629000D03*
G04 #@! TO.P,J1,25*
G04 #@! TO.N,Net-(J1-Pad25)*
X140506500Y-82009000D03*
G04 #@! TO.P,J1,26*
G04 #@! TO.N,Net-(J1-Pad26)*
X140506500Y-89629000D03*
G04 #@! TO.P,J1,27*
G04 #@! TO.N,Net-(J1-Pad27)*
X137966500Y-82009000D03*
G04 #@! TO.P,J1,28*
G04 #@! TO.N,Net-(J1-Pad28)*
X137966500Y-89629000D03*
G04 #@! TO.P,J1,29*
G04 #@! TO.N,Net-(J1-Pad29)*
X135426500Y-82009000D03*
G04 #@! TO.P,J1,30*
G04 #@! TO.N,Net-(J1-Pad30)*
X135426500Y-89629000D03*
G04 #@! TO.P,J1,31*
G04 #@! TO.N,Net-(J1-Pad31)*
X132886500Y-82009000D03*
G04 #@! TO.P,J1,32*
G04 #@! TO.N,Net-(J1-Pad32)*
X132886500Y-89629000D03*
G04 #@! TO.P,J1,33*
G04 #@! TO.N,Net-(J1-Pad33)*
X130346500Y-82009000D03*
G04 #@! TO.P,J1,34*
G04 #@! TO.N,Net-(J1-Pad34)*
X130346500Y-89629000D03*
G04 #@! TO.P,J1,35*
G04 #@! TO.N,Net-(J1-Pad35)*
X127806500Y-82009000D03*
G04 #@! TO.P,J1,36*
G04 #@! TO.N,Net-(J1-Pad36)*
X127806500Y-89629000D03*
G04 #@! TO.P,J1,37*
G04 #@! TO.N,Net-(J1-Pad37)*
X125266500Y-82009000D03*
G04 #@! TO.P,J1,38*
G04 #@! TO.N,Net-(J1-Pad38)*
X125266500Y-89629000D03*
G04 #@! TO.P,J1,39*
G04 #@! TO.N,Net-(J1-Pad39)*
X122726500Y-82009000D03*
G04 #@! TO.P,J1,40*
G04 #@! TO.N,Net-(J1-Pad40)*
X122726500Y-89629000D03*
G04 #@! TD*
D11*
G04 #@! TO.P,U6,1*
G04 #@! TO.N,Net-(U6-Pad1)*
X157632400Y-139623800D03*
G04 #@! TD*
D12*
G04 #@! TO.N,Net-(R1-Pad1)*
G04 #@! TO.C,R1*
G36*
X150456004Y-71345204D02*
X150480273Y-71348804D01*
X150504071Y-71354765D01*
X150527171Y-71363030D01*
X150549349Y-71373520D01*
X150570393Y-71386133D01*
X150590098Y-71400747D01*
X150608277Y-71417223D01*
X150624753Y-71435402D01*
X150639367Y-71455107D01*
X150651980Y-71476151D01*
X150662470Y-71498329D01*
X150670735Y-71521429D01*
X150676696Y-71545227D01*
X150680296Y-71569496D01*
X150681500Y-71594000D01*
X150681500Y-72344000D01*
X150680296Y-72368504D01*
X150676696Y-72392773D01*
X150670735Y-72416571D01*
X150662470Y-72439671D01*
X150651980Y-72461849D01*
X150639367Y-72482893D01*
X150624753Y-72502598D01*
X150608277Y-72520777D01*
X150590098Y-72537253D01*
X150570393Y-72551867D01*
X150549349Y-72564480D01*
X150527171Y-72574970D01*
X150504071Y-72583235D01*
X150480273Y-72589196D01*
X150456004Y-72592796D01*
X150431500Y-72594000D01*
X149181500Y-72594000D01*
X149156996Y-72592796D01*
X149132727Y-72589196D01*
X149108929Y-72583235D01*
X149085829Y-72574970D01*
X149063651Y-72564480D01*
X149042607Y-72551867D01*
X149022902Y-72537253D01*
X149004723Y-72520777D01*
X148988247Y-72502598D01*
X148973633Y-72482893D01*
X148961020Y-72461849D01*
X148950530Y-72439671D01*
X148942265Y-72416571D01*
X148936304Y-72392773D01*
X148932704Y-72368504D01*
X148931500Y-72344000D01*
X148931500Y-71594000D01*
X148932704Y-71569496D01*
X148936304Y-71545227D01*
X148942265Y-71521429D01*
X148950530Y-71498329D01*
X148961020Y-71476151D01*
X148973633Y-71455107D01*
X148988247Y-71435402D01*
X149004723Y-71417223D01*
X149022902Y-71400747D01*
X149042607Y-71386133D01*
X149063651Y-71373520D01*
X149085829Y-71363030D01*
X149108929Y-71354765D01*
X149132727Y-71348804D01*
X149156996Y-71345204D01*
X149181500Y-71344000D01*
X150431500Y-71344000D01*
X150456004Y-71345204D01*
X150456004Y-71345204D01*
G37*
D13*
G04 #@! TD*
G04 #@! TO.P,R1,1*
G04 #@! TO.N,Net-(R1-Pad1)*
X149806500Y-71969000D03*
D12*
G04 #@! TO.N,Net-(J1-Pad6)*
G04 #@! TO.C,R1*
G36*
X150456004Y-74145204D02*
X150480273Y-74148804D01*
X150504071Y-74154765D01*
X150527171Y-74163030D01*
X150549349Y-74173520D01*
X150570393Y-74186133D01*
X150590098Y-74200747D01*
X150608277Y-74217223D01*
X150624753Y-74235402D01*
X150639367Y-74255107D01*
X150651980Y-74276151D01*
X150662470Y-74298329D01*
X150670735Y-74321429D01*
X150676696Y-74345227D01*
X150680296Y-74369496D01*
X150681500Y-74394000D01*
X150681500Y-75144000D01*
X150680296Y-75168504D01*
X150676696Y-75192773D01*
X150670735Y-75216571D01*
X150662470Y-75239671D01*
X150651980Y-75261849D01*
X150639367Y-75282893D01*
X150624753Y-75302598D01*
X150608277Y-75320777D01*
X150590098Y-75337253D01*
X150570393Y-75351867D01*
X150549349Y-75364480D01*
X150527171Y-75374970D01*
X150504071Y-75383235D01*
X150480273Y-75389196D01*
X150456004Y-75392796D01*
X150431500Y-75394000D01*
X149181500Y-75394000D01*
X149156996Y-75392796D01*
X149132727Y-75389196D01*
X149108929Y-75383235D01*
X149085829Y-75374970D01*
X149063651Y-75364480D01*
X149042607Y-75351867D01*
X149022902Y-75337253D01*
X149004723Y-75320777D01*
X148988247Y-75302598D01*
X148973633Y-75282893D01*
X148961020Y-75261849D01*
X148950530Y-75239671D01*
X148942265Y-75216571D01*
X148936304Y-75192773D01*
X148932704Y-75168504D01*
X148931500Y-75144000D01*
X148931500Y-74394000D01*
X148932704Y-74369496D01*
X148936304Y-74345227D01*
X148942265Y-74321429D01*
X148950530Y-74298329D01*
X148961020Y-74276151D01*
X148973633Y-74255107D01*
X148988247Y-74235402D01*
X149004723Y-74217223D01*
X149022902Y-74200747D01*
X149042607Y-74186133D01*
X149063651Y-74173520D01*
X149085829Y-74163030D01*
X149108929Y-74154765D01*
X149132727Y-74148804D01*
X149156996Y-74145204D01*
X149181500Y-74144000D01*
X150431500Y-74144000D01*
X150456004Y-74145204D01*
X150456004Y-74145204D01*
G37*
D13*
G04 #@! TD*
G04 #@! TO.P,R1,2*
G04 #@! TO.N,Net-(J1-Pad6)*
X149806500Y-74769000D03*
D14*
G04 #@! TO.P,U2,1*
G04 #@! TO.N,Net-(J1-Pad31)*
X142900400Y-47142400D03*
G04 #@! TO.P,U2,2*
G04 #@! TO.N,Net-(J1-Pad40)*
X145440400Y-47142400D03*
G04 #@! TO.P,U2,3*
G04 #@! TO.N,Net-(J1-Pad2)*
X147980400Y-47142400D03*
G04 #@! TO.P,U2,4*
G04 #@! TO.N,Net-(J1-Pad6)*
X150520400Y-47142400D03*
G04 #@! TD*
D11*
G04 #@! TO.P,U3,1*
G04 #@! TO.N,Net-(U3-Pad1)*
X177673000Y-46418500D03*
G04 #@! TD*
G04 #@! TO.P,U5,1*
G04 #@! TO.N,Net-(U5-Pad1)*
X116078000Y-46418500D03*
G04 #@! TD*
G04 #@! TO.P,U4,1*
G04 #@! TO.N,Net-(U4-Pad1)*
X136144000Y-139623800D03*
G04 #@! TD*
D15*
G04 #@! TO.N,Net-(J1-Pad1)*
X170624500Y-78486000D03*
G04 #@! TO.N,Net-(J1-Pad2)*
X170942000Y-86868000D03*
G04 #@! TO.N,Net-(J1-Pad7)*
X176784000Y-86106000D03*
G04 #@! TO.N,Net-(J1-Pad11)*
X158305500Y-84899500D03*
G04 #@! TO.N,Net-(J1-Pad12)*
X153987500Y-101409500D03*
G04 #@! TO.N,Net-(J1-Pad13)*
X156273500Y-79311500D03*
G04 #@! TO.N,Net-(J1-Pad15)*
X152146000Y-85598000D03*
G04 #@! TO.N,Net-(J1-Pad16)*
X154686000Y-94170500D03*
G04 #@! TO.N,Net-(J1-Pad18)*
X150685500Y-92964000D03*
G04 #@! TO.N,Net-(J1-Pad19)*
X148971000Y-76708000D03*
G04 #@! TO.N,Net-(J1-Pad22)*
X145605500Y-86169500D03*
G04 #@! TO.N,Net-(J1-Pad23)*
X147193000Y-79756000D03*
G04 #@! TO.N,Net-(J1-Pad24)*
X141732000Y-86614000D03*
G04 #@! TO.N,Net-(J1-Pad29)*
X134112000Y-85090000D03*
G04 #@! TO.N,Net-(J1-Pad32)*
X137985500Y-94488000D03*
G04 #@! TO.N,Net-(J1-Pad33)*
X130175000Y-78930500D03*
G04 #@! TO.N,Net-(J1-Pad35)*
X127825500Y-86233000D03*
G04 #@! TO.N,Net-(J1-Pad37)*
X123698000Y-84518500D03*
G04 #@! TO.N,Net-(J1-Pad38)*
X125222000Y-92710000D03*
G04 #@! TO.N,Net-(J1-Pad40)*
X117348000Y-76708000D03*
G04 #@! TO.N,Net-(R1-Pad1)*
X150006500Y-70219000D03*
G04 #@! TO.N,Net-(J1-Pad6)*
X152273000Y-72707500D03*
X164592000Y-87122000D03*
X160274000Y-127508000D03*
X136652000Y-125730000D03*
X149860000Y-125222000D03*
X124968000Y-112014000D03*
X128270000Y-107950000D03*
X119126000Y-107696000D03*
X124206000Y-98298000D03*
X133604000Y-128016000D03*
X162814000Y-112522000D03*
X167894000Y-107696000D03*
X155448000Y-105410000D03*
X162560000Y-98552000D03*
G04 #@! TD*
D16*
G04 #@! TO.N,Net-(J1-Pad1)*
X170624500Y-81647000D02*
X170986500Y-82009000D01*
X170624500Y-78486000D02*
X170624500Y-81647000D01*
D17*
G04 #@! TO.N,Net-(J1-Pad2)*
X170942000Y-89584500D02*
X170986500Y-89629000D01*
X170942000Y-86868000D02*
X170942000Y-89584500D01*
D16*
G04 #@! TO.N,Net-(J1-Pad7)*
X163366500Y-82659000D02*
X163366500Y-82009000D01*
X166813500Y-86106000D02*
X163366500Y-82659000D01*
X176784000Y-86106000D02*
X166813500Y-86106000D01*
G04 #@! TO.N,Net-(J1-Pad11)*
X158305500Y-82028000D02*
X158286500Y-82009000D01*
X158305500Y-84899500D02*
X158305500Y-82028000D01*
G04 #@! TO.N,Net-(J1-Pad12)*
X158286500Y-91029000D02*
X158286500Y-89629000D01*
X158286500Y-96544815D02*
X158286500Y-91029000D01*
X153987500Y-100843815D02*
X158286500Y-96544815D01*
X153987500Y-101409500D02*
X153987500Y-100843815D01*
G04 #@! TO.N,Net-(J1-Pad13)*
X155746500Y-79838500D02*
X155746500Y-82009000D01*
X156273500Y-79311500D02*
X155746500Y-79838500D01*
G04 #@! TO.N,Net-(J1-Pad15)*
X153206500Y-84537500D02*
X153206500Y-82009000D01*
X152146000Y-85598000D02*
X153206500Y-84537500D01*
G04 #@! TO.N,Net-(J1-Pad16)*
X153206500Y-92691000D02*
X153206500Y-89629000D01*
X154686000Y-94170500D02*
X153206500Y-92691000D01*
G04 #@! TO.N,Net-(J1-Pad18)*
X150685500Y-92964000D02*
X150685500Y-90805000D01*
X150666500Y-90786000D02*
X150666500Y-89629000D01*
X150685500Y-90805000D02*
X150666500Y-90786000D01*
G04 #@! TO.N,Net-(J1-Pad19)*
X148126500Y-77552500D02*
X148126500Y-82009000D01*
X148971000Y-76708000D02*
X148126500Y-77552500D01*
G04 #@! TO.N,Net-(J1-Pad22)*
X145605500Y-89610000D02*
X145586500Y-89629000D01*
X145605500Y-86169500D02*
X145605500Y-89610000D01*
G04 #@! TO.N,Net-(J1-Pad23)*
X146627315Y-79756000D02*
X146119315Y-79248000D01*
X147193000Y-79756000D02*
X146627315Y-79756000D01*
X143046500Y-81359000D02*
X143046500Y-82009000D01*
X145157500Y-79248000D02*
X143046500Y-81359000D01*
X146119315Y-79248000D02*
X145157500Y-79248000D01*
G04 #@! TO.N,Net-(J1-Pad24)*
X141732000Y-89064500D02*
X142296500Y-89629000D01*
X142296500Y-89629000D02*
X143046500Y-89629000D01*
X141732000Y-86614000D02*
X141732000Y-89064500D01*
G04 #@! TO.N,Net-(J1-Pad29)*
X135426500Y-83775500D02*
X135426500Y-82009000D01*
X134112000Y-85090000D02*
X135426500Y-83775500D01*
G04 #@! TO.N,Net-(J1-Pad31)*
X132886500Y-80609000D02*
X132886500Y-82009000D01*
X141769030Y-47142400D02*
X132886500Y-56024930D01*
X132886500Y-56024930D02*
X132886500Y-80609000D01*
X142900400Y-47142400D02*
X141769030Y-47142400D01*
G04 #@! TO.N,Net-(J1-Pad32)*
X137985500Y-94488000D02*
X135826500Y-92329000D01*
X132886500Y-90279000D02*
X132886500Y-89629000D01*
X134936500Y-92329000D02*
X132886500Y-90279000D01*
X135826500Y-92329000D02*
X134936500Y-92329000D01*
G04 #@! TO.N,Net-(J1-Pad33)*
X130175000Y-78930500D02*
X130175000Y-82105500D01*
G04 #@! TO.N,Net-(J1-Pad35)*
X127825500Y-82028000D02*
X127806500Y-82009000D01*
X127825500Y-86233000D02*
X127825500Y-82028000D01*
G04 #@! TO.N,Net-(J1-Pad37)*
X125266500Y-83409000D02*
X125266500Y-82009000D01*
X125266500Y-83515685D02*
X125266500Y-83409000D01*
X124263685Y-84518500D02*
X125266500Y-83515685D01*
X123698000Y-84518500D02*
X124263685Y-84518500D01*
G04 #@! TO.N,Net-(J1-Pad38)*
X125222000Y-89673500D02*
X125266500Y-89629000D01*
X125222000Y-92710000D02*
X125222000Y-89673500D01*
G04 #@! TO.N,Net-(J1-Pad40)*
X117348000Y-76708000D02*
X117348000Y-82042000D01*
X122726500Y-87420500D02*
X122726500Y-89629000D01*
X117348000Y-82042000D02*
X122726500Y-87420500D01*
G04 #@! TO.N,Net-(R1-Pad1)*
X150006500Y-71769000D02*
X149806500Y-71969000D01*
X150006500Y-70219000D02*
X150006500Y-71769000D01*
G04 #@! TO.N,Net-(J1-Pad6)*
X150211500Y-74769000D02*
X149806500Y-74769000D01*
X152273000Y-72707500D02*
X150211500Y-74769000D01*
X165906500Y-88436500D02*
X165906500Y-89629000D01*
X164592000Y-87122000D02*
X165906500Y-88436500D01*
D17*
X150520400Y-47142400D02*
X162458400Y-47142400D01*
X177634001Y-62318001D02*
X177634001Y-82638001D01*
X162458400Y-47142400D02*
X177634001Y-62318001D01*
X177634001Y-82638001D02*
X178816000Y-83820000D01*
X178816000Y-83820000D02*
X178816000Y-88646000D01*
G04 #@! TD*
D18*
G04 #@! TO.N,Net-(J1-Pad6)*
G36*
X121768691Y-88021191D02*
X121628343Y-88231235D01*
X121579060Y-88479000D01*
X121579060Y-90779000D01*
X121628343Y-91026765D01*
X121768691Y-91236809D01*
X121978735Y-91377157D01*
X122226500Y-91426440D01*
X123226500Y-91426440D01*
X123474265Y-91377157D01*
X123684309Y-91236809D01*
X123824657Y-91026765D01*
X123873940Y-90779000D01*
X123873940Y-88479000D01*
X123824657Y-88231235D01*
X123684309Y-88021191D01*
X123669057Y-88011000D01*
X124323943Y-88011000D01*
X124308691Y-88021191D01*
X124168343Y-88231235D01*
X124119060Y-88479000D01*
X124119060Y-90779000D01*
X124168343Y-91026765D01*
X124308691Y-91236809D01*
X124462000Y-91339248D01*
X124462000Y-92006289D01*
X124344569Y-92123720D01*
X124187000Y-92504126D01*
X124187000Y-92915874D01*
X124344569Y-93296280D01*
X124635720Y-93587431D01*
X125016126Y-93745000D01*
X125427874Y-93745000D01*
X125808280Y-93587431D01*
X126099431Y-93296280D01*
X126257000Y-92915874D01*
X126257000Y-92504126D01*
X126099431Y-92123720D01*
X125982000Y-92006289D01*
X125982000Y-91383575D01*
X126014265Y-91377157D01*
X126224309Y-91236809D01*
X126364657Y-91026765D01*
X126413940Y-90779000D01*
X126413940Y-88479000D01*
X126364657Y-88231235D01*
X126224309Y-88021191D01*
X126209057Y-88011000D01*
X126863943Y-88011000D01*
X126848691Y-88021191D01*
X126708343Y-88231235D01*
X126659060Y-88479000D01*
X126659060Y-90779000D01*
X126708343Y-91026765D01*
X126848691Y-91236809D01*
X127058735Y-91377157D01*
X127306500Y-91426440D01*
X128306500Y-91426440D01*
X128554265Y-91377157D01*
X128764309Y-91236809D01*
X128904657Y-91026765D01*
X128953940Y-90779000D01*
X128953940Y-88479000D01*
X128904657Y-88231235D01*
X128764309Y-88021191D01*
X128749057Y-88011000D01*
X129403943Y-88011000D01*
X129388691Y-88021191D01*
X129248343Y-88231235D01*
X129199060Y-88479000D01*
X129199060Y-90779000D01*
X129248343Y-91026765D01*
X129388691Y-91236809D01*
X129598735Y-91377157D01*
X129846500Y-91426440D01*
X130846500Y-91426440D01*
X131094265Y-91377157D01*
X131304309Y-91236809D01*
X131444657Y-91026765D01*
X131493940Y-90779000D01*
X131493940Y-88479000D01*
X131444657Y-88231235D01*
X131304309Y-88021191D01*
X131289057Y-88011000D01*
X131943943Y-88011000D01*
X131928691Y-88021191D01*
X131788343Y-88231235D01*
X131739060Y-88479000D01*
X131739060Y-90779000D01*
X131788343Y-91026765D01*
X131928691Y-91236809D01*
X132138735Y-91377157D01*
X132386500Y-91426440D01*
X132959139Y-91426440D01*
X134346170Y-92813472D01*
X134388571Y-92876929D01*
X134452027Y-92919329D01*
X134639962Y-93044904D01*
X134688105Y-93054480D01*
X134861648Y-93089000D01*
X134861652Y-93089000D01*
X134936500Y-93103888D01*
X135011348Y-93089000D01*
X135511699Y-93089000D01*
X136950500Y-94527802D01*
X136950500Y-94693874D01*
X137108069Y-95074280D01*
X137399220Y-95365431D01*
X137779626Y-95523000D01*
X138191374Y-95523000D01*
X138571780Y-95365431D01*
X138862931Y-95074280D01*
X139020500Y-94693874D01*
X139020500Y-94282126D01*
X138862931Y-93901720D01*
X138571780Y-93610569D01*
X138191374Y-93453000D01*
X138025302Y-93453000D01*
X136416831Y-91844530D01*
X136374429Y-91781071D01*
X136123037Y-91613096D01*
X135901352Y-91569000D01*
X135901347Y-91569000D01*
X135826500Y-91554112D01*
X135751653Y-91569000D01*
X135251302Y-91569000D01*
X135108742Y-91426440D01*
X135926500Y-91426440D01*
X136174265Y-91377157D01*
X136384309Y-91236809D01*
X136524657Y-91026765D01*
X136573940Y-90779000D01*
X136573940Y-88479000D01*
X136524657Y-88231235D01*
X136384309Y-88021191D01*
X136369057Y-88011000D01*
X137023943Y-88011000D01*
X137008691Y-88021191D01*
X136868343Y-88231235D01*
X136819060Y-88479000D01*
X136819060Y-90779000D01*
X136868343Y-91026765D01*
X137008691Y-91236809D01*
X137218735Y-91377157D01*
X137466500Y-91426440D01*
X138466500Y-91426440D01*
X138714265Y-91377157D01*
X138924309Y-91236809D01*
X139064657Y-91026765D01*
X139113940Y-90779000D01*
X139113940Y-88479000D01*
X139064657Y-88231235D01*
X138924309Y-88021191D01*
X138909057Y-88011000D01*
X139563943Y-88011000D01*
X139548691Y-88021191D01*
X139408343Y-88231235D01*
X139359060Y-88479000D01*
X139359060Y-90779000D01*
X139408343Y-91026765D01*
X139548691Y-91236809D01*
X139758735Y-91377157D01*
X140006500Y-91426440D01*
X141006500Y-91426440D01*
X141254265Y-91377157D01*
X141464309Y-91236809D01*
X141604657Y-91026765D01*
X141653940Y-90779000D01*
X141653940Y-90061242D01*
X141706170Y-90113472D01*
X141748571Y-90176929D01*
X141899060Y-90277483D01*
X141899060Y-90779000D01*
X141948343Y-91026765D01*
X142088691Y-91236809D01*
X142298735Y-91377157D01*
X142546500Y-91426440D01*
X143546500Y-91426440D01*
X143794265Y-91377157D01*
X144004309Y-91236809D01*
X144144657Y-91026765D01*
X144193940Y-90779000D01*
X144193940Y-88479000D01*
X144144657Y-88231235D01*
X144004309Y-88021191D01*
X143989057Y-88011000D01*
X144643943Y-88011000D01*
X144628691Y-88021191D01*
X144488343Y-88231235D01*
X144439060Y-88479000D01*
X144439060Y-90779000D01*
X144488343Y-91026765D01*
X144628691Y-91236809D01*
X144838735Y-91377157D01*
X145086500Y-91426440D01*
X146086500Y-91426440D01*
X146334265Y-91377157D01*
X146544309Y-91236809D01*
X146684657Y-91026765D01*
X146733940Y-90779000D01*
X146733940Y-88479000D01*
X146684657Y-88231235D01*
X146544309Y-88021191D01*
X146529057Y-88011000D01*
X147183943Y-88011000D01*
X147168691Y-88021191D01*
X147028343Y-88231235D01*
X146979060Y-88479000D01*
X146979060Y-90779000D01*
X147028343Y-91026765D01*
X147168691Y-91236809D01*
X147378735Y-91377157D01*
X147626500Y-91426440D01*
X148626500Y-91426440D01*
X148874265Y-91377157D01*
X149084309Y-91236809D01*
X149224657Y-91026765D01*
X149273940Y-90779000D01*
X149273940Y-88479000D01*
X149224657Y-88231235D01*
X149084309Y-88021191D01*
X149069057Y-88011000D01*
X149723943Y-88011000D01*
X149708691Y-88021191D01*
X149568343Y-88231235D01*
X149519060Y-88479000D01*
X149519060Y-90779000D01*
X149568343Y-91026765D01*
X149708691Y-91236809D01*
X149918735Y-91377157D01*
X149925501Y-91378503D01*
X149925500Y-92260289D01*
X149808069Y-92377720D01*
X149650500Y-92758126D01*
X149650500Y-93169874D01*
X149808069Y-93550280D01*
X150099220Y-93841431D01*
X150479626Y-93999000D01*
X150891374Y-93999000D01*
X151271780Y-93841431D01*
X151562931Y-93550280D01*
X151720500Y-93169874D01*
X151720500Y-92758126D01*
X151562931Y-92377720D01*
X151445500Y-92260289D01*
X151445500Y-91356286D01*
X151624309Y-91236809D01*
X151764657Y-91026765D01*
X151813940Y-90779000D01*
X151813940Y-88479000D01*
X151764657Y-88231235D01*
X151624309Y-88021191D01*
X151609057Y-88011000D01*
X152263943Y-88011000D01*
X152248691Y-88021191D01*
X152108343Y-88231235D01*
X152059060Y-88479000D01*
X152059060Y-90779000D01*
X152108343Y-91026765D01*
X152248691Y-91236809D01*
X152446500Y-91368982D01*
X152446500Y-92616153D01*
X152431612Y-92691000D01*
X152446500Y-92765847D01*
X152446500Y-92765851D01*
X152490596Y-92987536D01*
X152658571Y-93238929D01*
X152722030Y-93281331D01*
X153651000Y-94210302D01*
X153651000Y-94376374D01*
X153808569Y-94756780D01*
X154099720Y-95047931D01*
X154480126Y-95205500D01*
X154891874Y-95205500D01*
X155272280Y-95047931D01*
X155563431Y-94756780D01*
X155721000Y-94376374D01*
X155721000Y-93964626D01*
X155563431Y-93584220D01*
X155272280Y-93293069D01*
X154891874Y-93135500D01*
X154725802Y-93135500D01*
X153966500Y-92376199D01*
X153966500Y-91368982D01*
X154164309Y-91236809D01*
X154304657Y-91026765D01*
X154353940Y-90779000D01*
X154353940Y-88479000D01*
X154304657Y-88231235D01*
X154164309Y-88021191D01*
X154149057Y-88011000D01*
X154803943Y-88011000D01*
X154788691Y-88021191D01*
X154648343Y-88231235D01*
X154599060Y-88479000D01*
X154599060Y-90779000D01*
X154648343Y-91026765D01*
X154788691Y-91236809D01*
X154998735Y-91377157D01*
X155246500Y-91426440D01*
X156246500Y-91426440D01*
X156494265Y-91377157D01*
X156704309Y-91236809D01*
X156844657Y-91026765D01*
X156893940Y-90779000D01*
X156893940Y-88479000D01*
X156844657Y-88231235D01*
X156704309Y-88021191D01*
X156689057Y-88011000D01*
X157343943Y-88011000D01*
X157328691Y-88021191D01*
X157188343Y-88231235D01*
X157139060Y-88479000D01*
X157139060Y-90779000D01*
X157188343Y-91026765D01*
X157328691Y-91236809D01*
X157526501Y-91368982D01*
X157526500Y-96230013D01*
X153503028Y-100253486D01*
X153439572Y-100295886D01*
X153271596Y-100547278D01*
X153243186Y-100690103D01*
X153110069Y-100823220D01*
X152952500Y-101203626D01*
X152952500Y-101615374D01*
X153110069Y-101995780D01*
X153401220Y-102286931D01*
X153781626Y-102444500D01*
X154193374Y-102444500D01*
X154573780Y-102286931D01*
X154864931Y-101995780D01*
X155022500Y-101615374D01*
X155022500Y-101203626D01*
X154928771Y-100977345D01*
X158770973Y-97135144D01*
X158834429Y-97092744D01*
X159002404Y-96841352D01*
X159046500Y-96619667D01*
X159046500Y-96619663D01*
X159061388Y-96544816D01*
X159046500Y-96469969D01*
X159046500Y-91368982D01*
X159244309Y-91236809D01*
X159384657Y-91026765D01*
X159433940Y-90779000D01*
X159433940Y-88479000D01*
X159384657Y-88231235D01*
X159244309Y-88021191D01*
X159229057Y-88011000D01*
X159883943Y-88011000D01*
X159868691Y-88021191D01*
X159728343Y-88231235D01*
X159679060Y-88479000D01*
X159679060Y-90779000D01*
X159728343Y-91026765D01*
X159868691Y-91236809D01*
X160078735Y-91377157D01*
X160326500Y-91426440D01*
X161326500Y-91426440D01*
X161574265Y-91377157D01*
X161784309Y-91236809D01*
X161924657Y-91026765D01*
X161973940Y-90779000D01*
X161973940Y-88479000D01*
X161924657Y-88231235D01*
X161784309Y-88021191D01*
X161769057Y-88011000D01*
X162423943Y-88011000D01*
X162408691Y-88021191D01*
X162268343Y-88231235D01*
X162219060Y-88479000D01*
X162219060Y-90779000D01*
X162268343Y-91026765D01*
X162408691Y-91236809D01*
X162618735Y-91377157D01*
X162866500Y-91426440D01*
X163866500Y-91426440D01*
X164114265Y-91377157D01*
X164324309Y-91236809D01*
X164464657Y-91026765D01*
X164513940Y-90779000D01*
X164513940Y-89914750D01*
X164771500Y-89914750D01*
X164771500Y-90905310D01*
X164868173Y-91138699D01*
X165046802Y-91317327D01*
X165280191Y-91414000D01*
X165620750Y-91414000D01*
X165779500Y-91255250D01*
X165779500Y-89756000D01*
X166033500Y-89756000D01*
X166033500Y-91255250D01*
X166192250Y-91414000D01*
X166532809Y-91414000D01*
X166766198Y-91317327D01*
X166944827Y-91138699D01*
X167041500Y-90905310D01*
X167041500Y-89914750D01*
X166882750Y-89756000D01*
X166033500Y-89756000D01*
X165779500Y-89756000D01*
X164930250Y-89756000D01*
X164771500Y-89914750D01*
X164513940Y-89914750D01*
X164513940Y-88479000D01*
X164464657Y-88231235D01*
X164324309Y-88021191D01*
X164309057Y-88011000D01*
X164976475Y-88011000D01*
X164868173Y-88119301D01*
X164771500Y-88352690D01*
X164771500Y-89343250D01*
X164930250Y-89502000D01*
X165779500Y-89502000D01*
X165779500Y-89482000D01*
X166033500Y-89482000D01*
X166033500Y-89502000D01*
X166882750Y-89502000D01*
X167041500Y-89343250D01*
X167041500Y-88352690D01*
X166944827Y-88119301D01*
X166836525Y-88011000D01*
X167503943Y-88011000D01*
X167488691Y-88021191D01*
X167348343Y-88231235D01*
X167299060Y-88479000D01*
X167299060Y-90779000D01*
X167348343Y-91026765D01*
X167488691Y-91236809D01*
X167698735Y-91377157D01*
X167946500Y-91426440D01*
X168946500Y-91426440D01*
X169194265Y-91377157D01*
X169404309Y-91236809D01*
X169544657Y-91026765D01*
X169593940Y-90779000D01*
X169593940Y-88479000D01*
X169544657Y-88231235D01*
X169404309Y-88021191D01*
X169389057Y-88011000D01*
X170043942Y-88011000D01*
X170028691Y-88021191D01*
X169888343Y-88231235D01*
X169839060Y-88479000D01*
X169839060Y-90779000D01*
X169888343Y-91026765D01*
X170028691Y-91236809D01*
X170238735Y-91377157D01*
X170486500Y-91426440D01*
X171486500Y-91426440D01*
X171734265Y-91377157D01*
X171944309Y-91236809D01*
X172084657Y-91026765D01*
X172133940Y-90779000D01*
X172133940Y-88479000D01*
X172084657Y-88231235D01*
X171944309Y-88021191D01*
X171929057Y-88011000D01*
X179959000Y-88011000D01*
X179959000Y-139573000D01*
X160017400Y-139573000D01*
X160017400Y-139149394D01*
X159654305Y-138272806D01*
X158983394Y-137601895D01*
X158106806Y-137238800D01*
X157157994Y-137238800D01*
X156281406Y-137601895D01*
X155610495Y-138272806D01*
X155247400Y-139149394D01*
X155247400Y-139573000D01*
X138529000Y-139573000D01*
X138529000Y-139149394D01*
X138165905Y-138272806D01*
X137494994Y-137601895D01*
X136618406Y-137238800D01*
X135669594Y-137238800D01*
X134793006Y-137601895D01*
X134122095Y-138272806D01*
X133759000Y-139149394D01*
X133759000Y-139573000D01*
X113740000Y-139573000D01*
X113740000Y-88011000D01*
X121783943Y-88011000D01*
X121768691Y-88021191D01*
X121768691Y-88021191D01*
G37*
X121768691Y-88021191D02*
X121628343Y-88231235D01*
X121579060Y-88479000D01*
X121579060Y-90779000D01*
X121628343Y-91026765D01*
X121768691Y-91236809D01*
X121978735Y-91377157D01*
X122226500Y-91426440D01*
X123226500Y-91426440D01*
X123474265Y-91377157D01*
X123684309Y-91236809D01*
X123824657Y-91026765D01*
X123873940Y-90779000D01*
X123873940Y-88479000D01*
X123824657Y-88231235D01*
X123684309Y-88021191D01*
X123669057Y-88011000D01*
X124323943Y-88011000D01*
X124308691Y-88021191D01*
X124168343Y-88231235D01*
X124119060Y-88479000D01*
X124119060Y-90779000D01*
X124168343Y-91026765D01*
X124308691Y-91236809D01*
X124462000Y-91339248D01*
X124462000Y-92006289D01*
X124344569Y-92123720D01*
X124187000Y-92504126D01*
X124187000Y-92915874D01*
X124344569Y-93296280D01*
X124635720Y-93587431D01*
X125016126Y-93745000D01*
X125427874Y-93745000D01*
X125808280Y-93587431D01*
X126099431Y-93296280D01*
X126257000Y-92915874D01*
X126257000Y-92504126D01*
X126099431Y-92123720D01*
X125982000Y-92006289D01*
X125982000Y-91383575D01*
X126014265Y-91377157D01*
X126224309Y-91236809D01*
X126364657Y-91026765D01*
X126413940Y-90779000D01*
X126413940Y-88479000D01*
X126364657Y-88231235D01*
X126224309Y-88021191D01*
X126209057Y-88011000D01*
X126863943Y-88011000D01*
X126848691Y-88021191D01*
X126708343Y-88231235D01*
X126659060Y-88479000D01*
X126659060Y-90779000D01*
X126708343Y-91026765D01*
X126848691Y-91236809D01*
X127058735Y-91377157D01*
X127306500Y-91426440D01*
X128306500Y-91426440D01*
X128554265Y-91377157D01*
X128764309Y-91236809D01*
X128904657Y-91026765D01*
X128953940Y-90779000D01*
X128953940Y-88479000D01*
X128904657Y-88231235D01*
X128764309Y-88021191D01*
X128749057Y-88011000D01*
X129403943Y-88011000D01*
X129388691Y-88021191D01*
X129248343Y-88231235D01*
X129199060Y-88479000D01*
X129199060Y-90779000D01*
X129248343Y-91026765D01*
X129388691Y-91236809D01*
X129598735Y-91377157D01*
X129846500Y-91426440D01*
X130846500Y-91426440D01*
X131094265Y-91377157D01*
X131304309Y-91236809D01*
X131444657Y-91026765D01*
X131493940Y-90779000D01*
X131493940Y-88479000D01*
X131444657Y-88231235D01*
X131304309Y-88021191D01*
X131289057Y-88011000D01*
X131943943Y-88011000D01*
X131928691Y-88021191D01*
X131788343Y-88231235D01*
X131739060Y-88479000D01*
X131739060Y-90779000D01*
X131788343Y-91026765D01*
X131928691Y-91236809D01*
X132138735Y-91377157D01*
X132386500Y-91426440D01*
X132959139Y-91426440D01*
X134346170Y-92813472D01*
X134388571Y-92876929D01*
X134452027Y-92919329D01*
X134639962Y-93044904D01*
X134688105Y-93054480D01*
X134861648Y-93089000D01*
X134861652Y-93089000D01*
X134936500Y-93103888D01*
X135011348Y-93089000D01*
X135511699Y-93089000D01*
X136950500Y-94527802D01*
X136950500Y-94693874D01*
X137108069Y-95074280D01*
X137399220Y-95365431D01*
X137779626Y-95523000D01*
X138191374Y-95523000D01*
X138571780Y-95365431D01*
X138862931Y-95074280D01*
X139020500Y-94693874D01*
X139020500Y-94282126D01*
X138862931Y-93901720D01*
X138571780Y-93610569D01*
X138191374Y-93453000D01*
X138025302Y-93453000D01*
X136416831Y-91844530D01*
X136374429Y-91781071D01*
X136123037Y-91613096D01*
X135901352Y-91569000D01*
X135901347Y-91569000D01*
X135826500Y-91554112D01*
X135751653Y-91569000D01*
X135251302Y-91569000D01*
X135108742Y-91426440D01*
X135926500Y-91426440D01*
X136174265Y-91377157D01*
X136384309Y-91236809D01*
X136524657Y-91026765D01*
X136573940Y-90779000D01*
X136573940Y-88479000D01*
X136524657Y-88231235D01*
X136384309Y-88021191D01*
X136369057Y-88011000D01*
X137023943Y-88011000D01*
X137008691Y-88021191D01*
X136868343Y-88231235D01*
X136819060Y-88479000D01*
X136819060Y-90779000D01*
X136868343Y-91026765D01*
X137008691Y-91236809D01*
X137218735Y-91377157D01*
X137466500Y-91426440D01*
X138466500Y-91426440D01*
X138714265Y-91377157D01*
X138924309Y-91236809D01*
X139064657Y-91026765D01*
X139113940Y-90779000D01*
X139113940Y-88479000D01*
X139064657Y-88231235D01*
X138924309Y-88021191D01*
X138909057Y-88011000D01*
X139563943Y-88011000D01*
X139548691Y-88021191D01*
X139408343Y-88231235D01*
X139359060Y-88479000D01*
X139359060Y-90779000D01*
X139408343Y-91026765D01*
X139548691Y-91236809D01*
X139758735Y-91377157D01*
X140006500Y-91426440D01*
X141006500Y-91426440D01*
X141254265Y-91377157D01*
X141464309Y-91236809D01*
X141604657Y-91026765D01*
X141653940Y-90779000D01*
X141653940Y-90061242D01*
X141706170Y-90113472D01*
X141748571Y-90176929D01*
X141899060Y-90277483D01*
X141899060Y-90779000D01*
X141948343Y-91026765D01*
X142088691Y-91236809D01*
X142298735Y-91377157D01*
X142546500Y-91426440D01*
X143546500Y-91426440D01*
X143794265Y-91377157D01*
X144004309Y-91236809D01*
X144144657Y-91026765D01*
X144193940Y-90779000D01*
X144193940Y-88479000D01*
X144144657Y-88231235D01*
X144004309Y-88021191D01*
X143989057Y-88011000D01*
X144643943Y-88011000D01*
X144628691Y-88021191D01*
X144488343Y-88231235D01*
X144439060Y-88479000D01*
X144439060Y-90779000D01*
X144488343Y-91026765D01*
X144628691Y-91236809D01*
X144838735Y-91377157D01*
X145086500Y-91426440D01*
X146086500Y-91426440D01*
X146334265Y-91377157D01*
X146544309Y-91236809D01*
X146684657Y-91026765D01*
X146733940Y-90779000D01*
X146733940Y-88479000D01*
X146684657Y-88231235D01*
X146544309Y-88021191D01*
X146529057Y-88011000D01*
X147183943Y-88011000D01*
X147168691Y-88021191D01*
X147028343Y-88231235D01*
X146979060Y-88479000D01*
X146979060Y-90779000D01*
X147028343Y-91026765D01*
X147168691Y-91236809D01*
X147378735Y-91377157D01*
X147626500Y-91426440D01*
X148626500Y-91426440D01*
X148874265Y-91377157D01*
X149084309Y-91236809D01*
X149224657Y-91026765D01*
X149273940Y-90779000D01*
X149273940Y-88479000D01*
X149224657Y-88231235D01*
X149084309Y-88021191D01*
X149069057Y-88011000D01*
X149723943Y-88011000D01*
X149708691Y-88021191D01*
X149568343Y-88231235D01*
X149519060Y-88479000D01*
X149519060Y-90779000D01*
X149568343Y-91026765D01*
X149708691Y-91236809D01*
X149918735Y-91377157D01*
X149925501Y-91378503D01*
X149925500Y-92260289D01*
X149808069Y-92377720D01*
X149650500Y-92758126D01*
X149650500Y-93169874D01*
X149808069Y-93550280D01*
X150099220Y-93841431D01*
X150479626Y-93999000D01*
X150891374Y-93999000D01*
X151271780Y-93841431D01*
X151562931Y-93550280D01*
X151720500Y-93169874D01*
X151720500Y-92758126D01*
X151562931Y-92377720D01*
X151445500Y-92260289D01*
X151445500Y-91356286D01*
X151624309Y-91236809D01*
X151764657Y-91026765D01*
X151813940Y-90779000D01*
X151813940Y-88479000D01*
X151764657Y-88231235D01*
X151624309Y-88021191D01*
X151609057Y-88011000D01*
X152263943Y-88011000D01*
X152248691Y-88021191D01*
X152108343Y-88231235D01*
X152059060Y-88479000D01*
X152059060Y-90779000D01*
X152108343Y-91026765D01*
X152248691Y-91236809D01*
X152446500Y-91368982D01*
X152446500Y-92616153D01*
X152431612Y-92691000D01*
X152446500Y-92765847D01*
X152446500Y-92765851D01*
X152490596Y-92987536D01*
X152658571Y-93238929D01*
X152722030Y-93281331D01*
X153651000Y-94210302D01*
X153651000Y-94376374D01*
X153808569Y-94756780D01*
X154099720Y-95047931D01*
X154480126Y-95205500D01*
X154891874Y-95205500D01*
X155272280Y-95047931D01*
X155563431Y-94756780D01*
X155721000Y-94376374D01*
X155721000Y-93964626D01*
X155563431Y-93584220D01*
X155272280Y-93293069D01*
X154891874Y-93135500D01*
X154725802Y-93135500D01*
X153966500Y-92376199D01*
X153966500Y-91368982D01*
X154164309Y-91236809D01*
X154304657Y-91026765D01*
X154353940Y-90779000D01*
X154353940Y-88479000D01*
X154304657Y-88231235D01*
X154164309Y-88021191D01*
X154149057Y-88011000D01*
X154803943Y-88011000D01*
X154788691Y-88021191D01*
X154648343Y-88231235D01*
X154599060Y-88479000D01*
X154599060Y-90779000D01*
X154648343Y-91026765D01*
X154788691Y-91236809D01*
X154998735Y-91377157D01*
X155246500Y-91426440D01*
X156246500Y-91426440D01*
X156494265Y-91377157D01*
X156704309Y-91236809D01*
X156844657Y-91026765D01*
X156893940Y-90779000D01*
X156893940Y-88479000D01*
X156844657Y-88231235D01*
X156704309Y-88021191D01*
X156689057Y-88011000D01*
X157343943Y-88011000D01*
X157328691Y-88021191D01*
X157188343Y-88231235D01*
X157139060Y-88479000D01*
X157139060Y-90779000D01*
X157188343Y-91026765D01*
X157328691Y-91236809D01*
X157526501Y-91368982D01*
X157526500Y-96230013D01*
X153503028Y-100253486D01*
X153439572Y-100295886D01*
X153271596Y-100547278D01*
X153243186Y-100690103D01*
X153110069Y-100823220D01*
X152952500Y-101203626D01*
X152952500Y-101615374D01*
X153110069Y-101995780D01*
X153401220Y-102286931D01*
X153781626Y-102444500D01*
X154193374Y-102444500D01*
X154573780Y-102286931D01*
X154864931Y-101995780D01*
X155022500Y-101615374D01*
X155022500Y-101203626D01*
X154928771Y-100977345D01*
X158770973Y-97135144D01*
X158834429Y-97092744D01*
X159002404Y-96841352D01*
X159046500Y-96619667D01*
X159046500Y-96619663D01*
X159061388Y-96544816D01*
X159046500Y-96469969D01*
X159046500Y-91368982D01*
X159244309Y-91236809D01*
X159384657Y-91026765D01*
X159433940Y-90779000D01*
X159433940Y-88479000D01*
X159384657Y-88231235D01*
X159244309Y-88021191D01*
X159229057Y-88011000D01*
X159883943Y-88011000D01*
X159868691Y-88021191D01*
X159728343Y-88231235D01*
X159679060Y-88479000D01*
X159679060Y-90779000D01*
X159728343Y-91026765D01*
X159868691Y-91236809D01*
X160078735Y-91377157D01*
X160326500Y-91426440D01*
X161326500Y-91426440D01*
X161574265Y-91377157D01*
X161784309Y-91236809D01*
X161924657Y-91026765D01*
X161973940Y-90779000D01*
X161973940Y-88479000D01*
X161924657Y-88231235D01*
X161784309Y-88021191D01*
X161769057Y-88011000D01*
X162423943Y-88011000D01*
X162408691Y-88021191D01*
X162268343Y-88231235D01*
X162219060Y-88479000D01*
X162219060Y-90779000D01*
X162268343Y-91026765D01*
X162408691Y-91236809D01*
X162618735Y-91377157D01*
X162866500Y-91426440D01*
X163866500Y-91426440D01*
X164114265Y-91377157D01*
X164324309Y-91236809D01*
X164464657Y-91026765D01*
X164513940Y-90779000D01*
X164513940Y-89914750D01*
X164771500Y-89914750D01*
X164771500Y-90905310D01*
X164868173Y-91138699D01*
X165046802Y-91317327D01*
X165280191Y-91414000D01*
X165620750Y-91414000D01*
X165779500Y-91255250D01*
X165779500Y-89756000D01*
X166033500Y-89756000D01*
X166033500Y-91255250D01*
X166192250Y-91414000D01*
X166532809Y-91414000D01*
X166766198Y-91317327D01*
X166944827Y-91138699D01*
X167041500Y-90905310D01*
X167041500Y-89914750D01*
X166882750Y-89756000D01*
X166033500Y-89756000D01*
X165779500Y-89756000D01*
X164930250Y-89756000D01*
X164771500Y-89914750D01*
X164513940Y-89914750D01*
X164513940Y-88479000D01*
X164464657Y-88231235D01*
X164324309Y-88021191D01*
X164309057Y-88011000D01*
X164976475Y-88011000D01*
X164868173Y-88119301D01*
X164771500Y-88352690D01*
X164771500Y-89343250D01*
X164930250Y-89502000D01*
X165779500Y-89502000D01*
X165779500Y-89482000D01*
X166033500Y-89482000D01*
X166033500Y-89502000D01*
X166882750Y-89502000D01*
X167041500Y-89343250D01*
X167041500Y-88352690D01*
X166944827Y-88119301D01*
X166836525Y-88011000D01*
X167503943Y-88011000D01*
X167488691Y-88021191D01*
X167348343Y-88231235D01*
X167299060Y-88479000D01*
X167299060Y-90779000D01*
X167348343Y-91026765D01*
X167488691Y-91236809D01*
X167698735Y-91377157D01*
X167946500Y-91426440D01*
X168946500Y-91426440D01*
X169194265Y-91377157D01*
X169404309Y-91236809D01*
X169544657Y-91026765D01*
X169593940Y-90779000D01*
X169593940Y-88479000D01*
X169544657Y-88231235D01*
X169404309Y-88021191D01*
X169389057Y-88011000D01*
X170043942Y-88011000D01*
X170028691Y-88021191D01*
X169888343Y-88231235D01*
X169839060Y-88479000D01*
X169839060Y-90779000D01*
X169888343Y-91026765D01*
X170028691Y-91236809D01*
X170238735Y-91377157D01*
X170486500Y-91426440D01*
X171486500Y-91426440D01*
X171734265Y-91377157D01*
X171944309Y-91236809D01*
X172084657Y-91026765D01*
X172133940Y-90779000D01*
X172133940Y-88479000D01*
X172084657Y-88231235D01*
X171944309Y-88021191D01*
X171929057Y-88011000D01*
X179959000Y-88011000D01*
X179959000Y-139573000D01*
X160017400Y-139573000D01*
X160017400Y-139149394D01*
X159654305Y-138272806D01*
X158983394Y-137601895D01*
X158106806Y-137238800D01*
X157157994Y-137238800D01*
X156281406Y-137601895D01*
X155610495Y-138272806D01*
X155247400Y-139149394D01*
X155247400Y-139573000D01*
X138529000Y-139573000D01*
X138529000Y-139149394D01*
X138165905Y-138272806D01*
X137494994Y-137601895D01*
X136618406Y-137238800D01*
X135669594Y-137238800D01*
X134793006Y-137601895D01*
X134122095Y-138272806D01*
X133759000Y-139149394D01*
X133759000Y-139573000D01*
X113740000Y-139573000D01*
X113740000Y-88011000D01*
X121783943Y-88011000D01*
X121768691Y-88021191D01*
G04 #@! TD*
M02*
