G04 #@! TF.GenerationSoftware,KiCad,Pcbnew,5.0.2+dfsg1-1~bpo9+1*
G04 #@! TF.CreationDate,2019-01-24T11:26:08+00:00*
G04 #@! TF.ProjectId,zeroboy_new_front,7a65726f-626f-4795-9f6e-65775f66726f,rev?*
G04 #@! TF.SameCoordinates,Original*
G04 #@! TF.FileFunction,Legend,Top*
G04 #@! TF.FilePolarity,Positive*
%FSLAX46Y46*%
G04 Gerber Fmt 4.6, Leading zero omitted, Abs format (unit mm)*
G04 Created by KiCad (PCBNEW 5.0.2+dfsg1-1~bpo9+1) date Thu 24 Jan 2019 11:26:08 GMT*
%MOMM*%
%LPD*%
G01*
G04 APERTURE LIST*
%ADD10C,0.300000*%
%ADD11C,0.150000*%
%ADD12C,0.125000*%
G04 APERTURE END LIST*
D10*
X127458588Y-108684131D02*
X127030017Y-109826988D01*
X126601445Y-108684131D01*
X119786857Y-45636571D02*
X119786857Y-44136571D01*
X120144000Y-44136571D01*
X120358285Y-44208000D01*
X120501142Y-44350857D01*
X120572571Y-44493714D01*
X120644000Y-44779428D01*
X120644000Y-44993714D01*
X120572571Y-45279428D01*
X120501142Y-45422285D01*
X120358285Y-45565142D01*
X120144000Y-45636571D01*
X119786857Y-45636571D01*
X121501142Y-45636571D02*
X121358285Y-45565142D01*
X121286857Y-45493714D01*
X121215428Y-45350857D01*
X121215428Y-44922285D01*
X121286857Y-44779428D01*
X121358285Y-44708000D01*
X121501142Y-44636571D01*
X121715428Y-44636571D01*
X121858285Y-44708000D01*
X121929714Y-44779428D01*
X122001142Y-44922285D01*
X122001142Y-45350857D01*
X121929714Y-45493714D01*
X121858285Y-45565142D01*
X121715428Y-45636571D01*
X121501142Y-45636571D01*
X122429714Y-44636571D02*
X123001142Y-44636571D01*
X122644000Y-44136571D02*
X122644000Y-45422285D01*
X122715428Y-45565142D01*
X122858285Y-45636571D01*
X123001142Y-45636571D01*
X124644000Y-45636571D02*
X124644000Y-44636571D01*
X124644000Y-44779428D02*
X124715428Y-44708000D01*
X124858285Y-44636571D01*
X125072571Y-44636571D01*
X125215428Y-44708000D01*
X125286857Y-44850857D01*
X125286857Y-45636571D01*
X125286857Y-44850857D02*
X125358285Y-44708000D01*
X125501142Y-44636571D01*
X125715428Y-44636571D01*
X125858285Y-44708000D01*
X125929714Y-44850857D01*
X125929714Y-45636571D01*
X127286857Y-45636571D02*
X127286857Y-44850857D01*
X127215428Y-44708000D01*
X127072571Y-44636571D01*
X126786857Y-44636571D01*
X126644000Y-44708000D01*
X127286857Y-45565142D02*
X127144000Y-45636571D01*
X126786857Y-45636571D01*
X126644000Y-45565142D01*
X126572571Y-45422285D01*
X126572571Y-45279428D01*
X126644000Y-45136571D01*
X126786857Y-45065142D01*
X127144000Y-45065142D01*
X127286857Y-44993714D01*
X127786857Y-44636571D02*
X128358285Y-44636571D01*
X128001142Y-44136571D02*
X128001142Y-45422285D01*
X128072571Y-45565142D01*
X128215428Y-45636571D01*
X128358285Y-45636571D01*
X128858285Y-45636571D02*
X128858285Y-44636571D01*
X128858285Y-44922285D02*
X128929714Y-44779428D01*
X129001142Y-44708000D01*
X129144000Y-44636571D01*
X129286857Y-44636571D01*
X129786857Y-45636571D02*
X129786857Y-44636571D01*
X129786857Y-44136571D02*
X129715428Y-44208000D01*
X129786857Y-44279428D01*
X129858285Y-44208000D01*
X129786857Y-44136571D01*
X129786857Y-44279428D01*
X130358285Y-45636571D02*
X131144000Y-44636571D01*
X130358285Y-44636571D02*
X131144000Y-45636571D01*
X132715428Y-44636571D02*
X133001142Y-45636571D01*
X133286857Y-44922285D01*
X133572571Y-45636571D01*
X133858285Y-44636571D01*
X134429714Y-45636571D02*
X134429714Y-44636571D01*
X134429714Y-44136571D02*
X134358285Y-44208000D01*
X134429714Y-44279428D01*
X134501142Y-44208000D01*
X134429714Y-44136571D01*
X134429714Y-44279428D01*
X134929714Y-44636571D02*
X135501142Y-44636571D01*
X135144000Y-44136571D02*
X135144000Y-45422285D01*
X135215428Y-45565142D01*
X135358285Y-45636571D01*
X135501142Y-45636571D01*
X136001142Y-45636571D02*
X136001142Y-44136571D01*
X136644000Y-45636571D02*
X136644000Y-44850857D01*
X136572571Y-44708000D01*
X136429714Y-44636571D01*
X136215428Y-44636571D01*
X136072571Y-44708000D01*
X136001142Y-44779428D01*
X138429714Y-45565142D02*
X138572571Y-45636571D01*
X138858285Y-45636571D01*
X139001142Y-45565142D01*
X139072571Y-45422285D01*
X139072571Y-45350857D01*
X139001142Y-45208000D01*
X138858285Y-45136571D01*
X138644000Y-45136571D01*
X138501142Y-45065142D01*
X138429714Y-44922285D01*
X138429714Y-44850857D01*
X138501142Y-44708000D01*
X138644000Y-44636571D01*
X138858285Y-44636571D01*
X139001142Y-44708000D01*
X139501142Y-44636571D02*
X140072571Y-44636571D01*
X139715428Y-44136571D02*
X139715428Y-45422285D01*
X139786857Y-45565142D01*
X139929714Y-45636571D01*
X140072571Y-45636571D01*
X141144000Y-45565142D02*
X141001142Y-45636571D01*
X140715428Y-45636571D01*
X140572571Y-45565142D01*
X140501142Y-45422285D01*
X140501142Y-44850857D01*
X140572571Y-44708000D01*
X140715428Y-44636571D01*
X141001142Y-44636571D01*
X141144000Y-44708000D01*
X141215428Y-44850857D01*
X141215428Y-44993714D01*
X140501142Y-45136571D01*
X141858285Y-45636571D02*
X141858285Y-44636571D01*
X141858285Y-44922285D02*
X141929714Y-44779428D01*
X142001142Y-44708000D01*
X142144000Y-44636571D01*
X142286857Y-44636571D01*
X143358285Y-45565142D02*
X143215428Y-45636571D01*
X142929714Y-45636571D01*
X142786857Y-45565142D01*
X142715428Y-45422285D01*
X142715428Y-44850857D01*
X142786857Y-44708000D01*
X142929714Y-44636571D01*
X143215428Y-44636571D01*
X143358285Y-44708000D01*
X143429714Y-44850857D01*
X143429714Y-44993714D01*
X142715428Y-45136571D01*
X144286857Y-45636571D02*
X144144000Y-45565142D01*
X144072571Y-45493714D01*
X144001142Y-45350857D01*
X144001142Y-44922285D01*
X144072571Y-44779428D01*
X144144000Y-44708000D01*
X144286857Y-44636571D01*
X144501142Y-44636571D01*
X144644000Y-44708000D01*
X144715428Y-44779428D01*
X144786857Y-44922285D01*
X144786857Y-45350857D01*
X144715428Y-45493714D01*
X144644000Y-45565142D01*
X144501142Y-45636571D01*
X144286857Y-45636571D01*
X146501142Y-45565142D02*
X146644000Y-45636571D01*
X146929714Y-45636571D01*
X147072571Y-45565142D01*
X147144000Y-45422285D01*
X147144000Y-45350857D01*
X147072571Y-45208000D01*
X146929714Y-45136571D01*
X146715428Y-45136571D01*
X146572571Y-45065142D01*
X146501142Y-44922285D01*
X146501142Y-44850857D01*
X146572571Y-44708000D01*
X146715428Y-44636571D01*
X146929714Y-44636571D01*
X147072571Y-44708000D01*
X148001142Y-45636571D02*
X147858285Y-45565142D01*
X147786857Y-45493714D01*
X147715428Y-45350857D01*
X147715428Y-44922285D01*
X147786857Y-44779428D01*
X147858285Y-44708000D01*
X148001142Y-44636571D01*
X148215428Y-44636571D01*
X148358285Y-44708000D01*
X148429714Y-44779428D01*
X148501142Y-44922285D01*
X148501142Y-45350857D01*
X148429714Y-45493714D01*
X148358285Y-45565142D01*
X148215428Y-45636571D01*
X148001142Y-45636571D01*
X149786857Y-44636571D02*
X149786857Y-45636571D01*
X149144000Y-44636571D02*
X149144000Y-45422285D01*
X149215428Y-45565142D01*
X149358285Y-45636571D01*
X149572571Y-45636571D01*
X149715428Y-45565142D01*
X149786857Y-45493714D01*
X150501142Y-44636571D02*
X150501142Y-45636571D01*
X150501142Y-44779428D02*
X150572571Y-44708000D01*
X150715428Y-44636571D01*
X150929714Y-44636571D01*
X151072571Y-44708000D01*
X151144000Y-44850857D01*
X151144000Y-45636571D01*
X152501142Y-45636571D02*
X152501142Y-44136571D01*
X152501142Y-45565142D02*
X152358285Y-45636571D01*
X152072571Y-45636571D01*
X151929714Y-45565142D01*
X151858285Y-45493714D01*
X151786857Y-45350857D01*
X151786857Y-44922285D01*
X151858285Y-44779428D01*
X151929714Y-44708000D01*
X152072571Y-44636571D01*
X152358285Y-44636571D01*
X152501142Y-44708000D01*
X153754571Y-47136857D02*
X153254571Y-47136857D01*
X153254571Y-47922571D02*
X153254571Y-46422571D01*
X153968857Y-46422571D01*
X155183142Y-47922571D02*
X155183142Y-47136857D01*
X155111714Y-46994000D01*
X154968857Y-46922571D01*
X154683142Y-46922571D01*
X154540285Y-46994000D01*
X155183142Y-47851142D02*
X155040285Y-47922571D01*
X154683142Y-47922571D01*
X154540285Y-47851142D01*
X154468857Y-47708285D01*
X154468857Y-47565428D01*
X154540285Y-47422571D01*
X154683142Y-47351142D01*
X155040285Y-47351142D01*
X155183142Y-47279714D01*
X156540285Y-47851142D02*
X156397428Y-47922571D01*
X156111714Y-47922571D01*
X155968857Y-47851142D01*
X155897428Y-47779714D01*
X155826000Y-47636857D01*
X155826000Y-47208285D01*
X155897428Y-47065428D01*
X155968857Y-46994000D01*
X156111714Y-46922571D01*
X156397428Y-46922571D01*
X156540285Y-46994000D01*
X157754571Y-47851142D02*
X157611714Y-47922571D01*
X157326000Y-47922571D01*
X157183142Y-47851142D01*
X157111714Y-47708285D01*
X157111714Y-47136857D01*
X157183142Y-46994000D01*
X157326000Y-46922571D01*
X157611714Y-46922571D01*
X157754571Y-46994000D01*
X157826000Y-47136857D01*
X157826000Y-47279714D01*
X157111714Y-47422571D01*
X158683142Y-47922571D02*
X158540285Y-47851142D01*
X158468857Y-47708285D01*
X158468857Y-46422571D01*
X159826000Y-47851142D02*
X159683142Y-47922571D01*
X159397428Y-47922571D01*
X159254571Y-47851142D01*
X159183142Y-47708285D01*
X159183142Y-47136857D01*
X159254571Y-46994000D01*
X159397428Y-46922571D01*
X159683142Y-46922571D01*
X159826000Y-46994000D01*
X159897428Y-47136857D01*
X159897428Y-47279714D01*
X159183142Y-47422571D01*
X160468857Y-47851142D02*
X160611714Y-47922571D01*
X160897428Y-47922571D01*
X161040285Y-47851142D01*
X161111714Y-47708285D01*
X161111714Y-47636857D01*
X161040285Y-47494000D01*
X160897428Y-47422571D01*
X160683142Y-47422571D01*
X160540285Y-47351142D01*
X160468857Y-47208285D01*
X160468857Y-47136857D01*
X160540285Y-46994000D01*
X160683142Y-46922571D01*
X160897428Y-46922571D01*
X161040285Y-46994000D01*
X161683142Y-47851142D02*
X161826000Y-47922571D01*
X162111714Y-47922571D01*
X162254571Y-47851142D01*
X162326000Y-47708285D01*
X162326000Y-47636857D01*
X162254571Y-47494000D01*
X162111714Y-47422571D01*
X161897428Y-47422571D01*
X161754571Y-47351142D01*
X161683142Y-47208285D01*
X161683142Y-47136857D01*
X161754571Y-46994000D01*
X161897428Y-46922571D01*
X162111714Y-46922571D01*
X162254571Y-46994000D01*
X162754571Y-46922571D02*
X163326000Y-46922571D01*
X162968857Y-46422571D02*
X162968857Y-47708285D01*
X163040285Y-47851142D01*
X163183142Y-47922571D01*
X163326000Y-47922571D01*
X164397428Y-47851142D02*
X164254571Y-47922571D01*
X163968857Y-47922571D01*
X163826000Y-47851142D01*
X163754571Y-47708285D01*
X163754571Y-47136857D01*
X163826000Y-46994000D01*
X163968857Y-46922571D01*
X164254571Y-46922571D01*
X164397428Y-46994000D01*
X164468857Y-47136857D01*
X164468857Y-47279714D01*
X163754571Y-47422571D01*
X165754571Y-47851142D02*
X165611714Y-47922571D01*
X165326000Y-47922571D01*
X165183142Y-47851142D01*
X165111714Y-47779714D01*
X165040285Y-47636857D01*
X165040285Y-47208285D01*
X165111714Y-47065428D01*
X165183142Y-46994000D01*
X165326000Y-46922571D01*
X165611714Y-46922571D01*
X165754571Y-46994000D01*
X166397428Y-47922571D02*
X166397428Y-46422571D01*
X167040285Y-47922571D02*
X167040285Y-47136857D01*
X166968857Y-46994000D01*
X166826000Y-46922571D01*
X166611714Y-46922571D01*
X166468857Y-46994000D01*
X166397428Y-47065428D01*
X168826000Y-46565428D02*
X168897428Y-46494000D01*
X169040285Y-46422571D01*
X169397428Y-46422571D01*
X169540285Y-46494000D01*
X169611714Y-46565428D01*
X169683142Y-46708285D01*
X169683142Y-46851142D01*
X169611714Y-47065428D01*
X168754571Y-47922571D01*
X169683142Y-47922571D01*
X170611714Y-46422571D02*
X170754571Y-46422571D01*
X170897428Y-46494000D01*
X170968857Y-46565428D01*
X171040285Y-46708285D01*
X171111714Y-46994000D01*
X171111714Y-47351142D01*
X171040285Y-47636857D01*
X170968857Y-47779714D01*
X170897428Y-47851142D01*
X170754571Y-47922571D01*
X170611714Y-47922571D01*
X170468857Y-47851142D01*
X170397428Y-47779714D01*
X170326000Y-47636857D01*
X170254571Y-47351142D01*
X170254571Y-46994000D01*
X170326000Y-46708285D01*
X170397428Y-46565428D01*
X170468857Y-46494000D01*
X170611714Y-46422571D01*
X172540285Y-47922571D02*
X171683142Y-47922571D01*
X172111714Y-47922571D02*
X172111714Y-46422571D01*
X171968857Y-46636857D01*
X171826000Y-46779714D01*
X171683142Y-46851142D01*
X173254571Y-47922571D02*
X173540285Y-47922571D01*
X173683142Y-47851142D01*
X173754571Y-47779714D01*
X173897428Y-47565428D01*
X173968857Y-47279714D01*
X173968857Y-46708285D01*
X173897428Y-46565428D01*
X173826000Y-46494000D01*
X173683142Y-46422571D01*
X173397428Y-46422571D01*
X173254571Y-46494000D01*
X173183142Y-46565428D01*
X173111714Y-46708285D01*
X173111714Y-47065428D01*
X173183142Y-47208285D01*
X173254571Y-47279714D01*
X173397428Y-47351142D01*
X173683142Y-47351142D01*
X173826000Y-47279714D01*
X173897428Y-47208285D01*
X173968857Y-47065428D01*
X140891333Y-97678761D02*
X140224666Y-96726380D01*
X139748476Y-97678761D02*
X139748476Y-95678761D01*
X140510380Y-95678761D01*
X140700857Y-95774000D01*
X140796095Y-95869238D01*
X140891333Y-96059714D01*
X140891333Y-96345428D01*
X140796095Y-96535904D01*
X140700857Y-96631142D01*
X140510380Y-96726380D01*
X139748476Y-96726380D01*
X142510380Y-97583523D02*
X142319904Y-97678761D01*
X141938952Y-97678761D01*
X141748476Y-97583523D01*
X141653238Y-97393047D01*
X141653238Y-96631142D01*
X141748476Y-96440666D01*
X141938952Y-96345428D01*
X142319904Y-96345428D01*
X142510380Y-96440666D01*
X142605619Y-96631142D01*
X142605619Y-96821619D01*
X141653238Y-97012095D01*
X143177047Y-96345428D02*
X143938952Y-96345428D01*
X143462761Y-95678761D02*
X143462761Y-97393047D01*
X143558000Y-97583523D01*
X143748476Y-97678761D01*
X143938952Y-97678761D01*
X144605619Y-97678761D02*
X144605619Y-96345428D01*
X144605619Y-96726380D02*
X144700857Y-96535904D01*
X144796095Y-96440666D01*
X144986571Y-96345428D01*
X145177047Y-96345428D01*
X146129428Y-97678761D02*
X145938952Y-97583523D01*
X145843714Y-97488285D01*
X145748476Y-97297809D01*
X145748476Y-96726380D01*
X145843714Y-96535904D01*
X145938952Y-96440666D01*
X146129428Y-96345428D01*
X146415142Y-96345428D01*
X146605619Y-96440666D01*
X146700857Y-96535904D01*
X146796095Y-96726380D01*
X146796095Y-97297809D01*
X146700857Y-97488285D01*
X146605619Y-97583523D01*
X146415142Y-97678761D01*
X146129428Y-97678761D01*
X147462761Y-95678761D02*
X148796095Y-95678761D01*
X147462761Y-97678761D01*
X148796095Y-97678761D01*
X150319904Y-97583523D02*
X150129428Y-97678761D01*
X149748476Y-97678761D01*
X149558000Y-97583523D01*
X149462761Y-97393047D01*
X149462761Y-96631142D01*
X149558000Y-96440666D01*
X149748476Y-96345428D01*
X150129428Y-96345428D01*
X150319904Y-96440666D01*
X150415142Y-96631142D01*
X150415142Y-96821619D01*
X149462761Y-97012095D01*
X151272285Y-97678761D02*
X151272285Y-96345428D01*
X151272285Y-96726380D02*
X151367523Y-96535904D01*
X151462761Y-96440666D01*
X151653238Y-96345428D01*
X151843714Y-96345428D01*
X152796095Y-97678761D02*
X152605619Y-97583523D01*
X152510380Y-97488285D01*
X152415142Y-97297809D01*
X152415142Y-96726380D01*
X152510380Y-96535904D01*
X152605619Y-96440666D01*
X152796095Y-96345428D01*
X153081809Y-96345428D01*
X153272285Y-96440666D01*
X153367523Y-96535904D01*
X153462761Y-96726380D01*
X153462761Y-97297809D01*
X153367523Y-97488285D01*
X153272285Y-97583523D01*
X153081809Y-97678761D01*
X152796095Y-97678761D01*
X136775428Y-124051142D02*
X136989714Y-124122571D01*
X137346857Y-124122571D01*
X137489714Y-124051142D01*
X137561142Y-123979714D01*
X137632571Y-123836857D01*
X137632571Y-123694000D01*
X137561142Y-123551142D01*
X137489714Y-123479714D01*
X137346857Y-123408285D01*
X137061142Y-123336857D01*
X136918285Y-123265428D01*
X136846857Y-123194000D01*
X136775428Y-123051142D01*
X136775428Y-122908285D01*
X136846857Y-122765428D01*
X136918285Y-122694000D01*
X137061142Y-122622571D01*
X137418285Y-122622571D01*
X137632571Y-122694000D01*
X138846857Y-124051142D02*
X138704000Y-124122571D01*
X138418285Y-124122571D01*
X138275428Y-124051142D01*
X138204000Y-123908285D01*
X138204000Y-123336857D01*
X138275428Y-123194000D01*
X138418285Y-123122571D01*
X138704000Y-123122571D01*
X138846857Y-123194000D01*
X138918285Y-123336857D01*
X138918285Y-123479714D01*
X138204000Y-123622571D01*
X139775428Y-124122571D02*
X139632571Y-124051142D01*
X139561142Y-123908285D01*
X139561142Y-122622571D01*
X140918285Y-124051142D02*
X140775428Y-124122571D01*
X140489714Y-124122571D01*
X140346857Y-124051142D01*
X140275428Y-123908285D01*
X140275428Y-123336857D01*
X140346857Y-123194000D01*
X140489714Y-123122571D01*
X140775428Y-123122571D01*
X140918285Y-123194000D01*
X140989714Y-123336857D01*
X140989714Y-123479714D01*
X140275428Y-123622571D01*
X142275428Y-124051142D02*
X142132571Y-124122571D01*
X141846857Y-124122571D01*
X141704000Y-124051142D01*
X141632571Y-123979714D01*
X141561142Y-123836857D01*
X141561142Y-123408285D01*
X141632571Y-123265428D01*
X141704000Y-123194000D01*
X141846857Y-123122571D01*
X142132571Y-123122571D01*
X142275428Y-123194000D01*
X142704000Y-123122571D02*
X143275428Y-123122571D01*
X142918285Y-122622571D02*
X142918285Y-123908285D01*
X142989714Y-124051142D01*
X143132571Y-124122571D01*
X143275428Y-124122571D01*
X151241428Y-124051142D02*
X151455714Y-124122571D01*
X151812857Y-124122571D01*
X151955714Y-124051142D01*
X152027142Y-123979714D01*
X152098571Y-123836857D01*
X152098571Y-123694000D01*
X152027142Y-123551142D01*
X151955714Y-123479714D01*
X151812857Y-123408285D01*
X151527142Y-123336857D01*
X151384285Y-123265428D01*
X151312857Y-123194000D01*
X151241428Y-123051142D01*
X151241428Y-122908285D01*
X151312857Y-122765428D01*
X151384285Y-122694000D01*
X151527142Y-122622571D01*
X151884285Y-122622571D01*
X152098571Y-122694000D01*
X152527142Y-123122571D02*
X153098571Y-123122571D01*
X152741428Y-122622571D02*
X152741428Y-123908285D01*
X152812857Y-124051142D01*
X152955714Y-124122571D01*
X153098571Y-124122571D01*
X154241428Y-124122571D02*
X154241428Y-123336857D01*
X154170000Y-123194000D01*
X154027142Y-123122571D01*
X153741428Y-123122571D01*
X153598571Y-123194000D01*
X154241428Y-124051142D02*
X154098571Y-124122571D01*
X153741428Y-124122571D01*
X153598571Y-124051142D01*
X153527142Y-123908285D01*
X153527142Y-123765428D01*
X153598571Y-123622571D01*
X153741428Y-123551142D01*
X154098571Y-123551142D01*
X154241428Y-123479714D01*
X154955714Y-124122571D02*
X154955714Y-123122571D01*
X154955714Y-123408285D02*
X155027142Y-123265428D01*
X155098571Y-123194000D01*
X155241428Y-123122571D01*
X155384285Y-123122571D01*
X155670000Y-123122571D02*
X156241428Y-123122571D01*
X155884285Y-122622571D02*
X155884285Y-123908285D01*
X155955714Y-124051142D01*
X156098571Y-124122571D01*
X156241428Y-124122571D01*
X126627771Y-106895828D02*
X127056342Y-105752971D01*
X127484914Y-106895828D01*
X126199828Y-108220628D02*
X125056971Y-107792057D01*
X126199828Y-107363485D01*
X127850971Y-107374571D02*
X128993828Y-107803142D01*
X127850971Y-108231714D01*
X160020000Y-103469285D02*
X160020000Y-104183571D01*
X159520000Y-102683571D02*
X160020000Y-103469285D01*
X160520000Y-102683571D01*
X166505000Y-95698571D02*
X167505000Y-97198571D01*
X167505000Y-95698571D02*
X166505000Y-97198571D01*
X167112142Y-110382857D02*
X167326428Y-110454285D01*
X167397857Y-110525714D01*
X167469285Y-110668571D01*
X167469285Y-110882857D01*
X167397857Y-111025714D01*
X167326428Y-111097142D01*
X167183571Y-111168571D01*
X166612142Y-111168571D01*
X166612142Y-109668571D01*
X167112142Y-109668571D01*
X167255000Y-109740000D01*
X167326428Y-109811428D01*
X167397857Y-109954285D01*
X167397857Y-110097142D01*
X167326428Y-110240000D01*
X167255000Y-110311428D01*
X167112142Y-110382857D01*
X166612142Y-110382857D01*
X173632857Y-103755000D02*
X174347142Y-103755000D01*
X173490000Y-104183571D02*
X173990000Y-102683571D01*
X174490000Y-104183571D01*
D11*
G04 #@! TO.C,SW7*
X130810000Y-110871000D02*
X130810000Y-104902000D01*
X136779000Y-110871000D02*
X130810000Y-110871000D01*
X136779000Y-104902000D02*
X136779000Y-110871000D01*
X130810000Y-104902000D02*
X136779000Y-104902000D01*
G04 #@! TO.C,U6*
X160644469Y-139623800D02*
G75*
G03X160644469Y-139623800I-3012069J0D01*
G01*
G04 #@! TO.C,U1*
X161389060Y-50398680D02*
X116812060Y-50398680D01*
X161389060Y-50398680D02*
X177010060Y-50398680D01*
X177010060Y-50398680D02*
X177010060Y-92880180D01*
X177010060Y-92880180D02*
X116812060Y-92880180D01*
X116812060Y-92880180D02*
X116812060Y-71798180D01*
X116812060Y-50398680D02*
X116812060Y-71798180D01*
X161706560Y-71226680D02*
X162849560Y-71226680D01*
X162849560Y-71226680D02*
X162849560Y-72052180D01*
X162849560Y-72052180D02*
X161706560Y-72052180D01*
X158023560Y-70464680D02*
X156944060Y-70464680D01*
X156944060Y-71226680D02*
X156944060Y-72052180D01*
X158023560Y-71226680D02*
X156944060Y-71226680D01*
X156944060Y-72052180D02*
X158023560Y-72052180D01*
X158023560Y-68051680D02*
X156944060Y-68051680D01*
X156944060Y-68051680D02*
X156944060Y-70464680D01*
X161706560Y-70464680D02*
X162849560Y-70464680D01*
X162849560Y-70464680D02*
X162849560Y-68051680D01*
X162849560Y-68051680D02*
X161706560Y-68051680D01*
G04 #@! TO.C,LS1*
X124206000Y-139636500D02*
X116141500Y-139636500D01*
X116141500Y-139636500D02*
X116141500Y-123507500D01*
X116141500Y-123507500D02*
X132270500Y-123507500D01*
X132270500Y-123507500D02*
X132270500Y-139636500D01*
X132270500Y-139636500D02*
X124206000Y-139636500D01*
G04 #@! TO.C,SW2*
X163957000Y-97917000D02*
X169926000Y-97917000D01*
X169926000Y-97917000D02*
X169926000Y-103886000D01*
X169926000Y-103886000D02*
X163957000Y-103886000D01*
X163957000Y-103886000D02*
X163957000Y-97917000D01*
G04 #@! TO.C,SW3*
X123825000Y-97853500D02*
X129794000Y-97853500D01*
X129794000Y-97853500D02*
X129794000Y-103822500D01*
X129794000Y-103822500D02*
X123825000Y-103822500D01*
X123825000Y-103822500D02*
X123825000Y-97853500D01*
G04 #@! TO.C,SW4*
X123825000Y-117856000D02*
X123825000Y-111887000D01*
X129794000Y-117856000D02*
X123825000Y-117856000D01*
X129794000Y-111887000D02*
X129794000Y-117856000D01*
X123825000Y-111887000D02*
X129794000Y-111887000D01*
G04 #@! TO.C,SW5*
X163957000Y-111887000D02*
X169926000Y-111887000D01*
X169926000Y-111887000D02*
X169926000Y-117856000D01*
X169926000Y-117856000D02*
X163957000Y-117856000D01*
X163957000Y-117856000D02*
X163957000Y-111887000D01*
G04 #@! TO.C,SW8*
X136842500Y-131064000D02*
X136842500Y-125095000D01*
X142811500Y-131064000D02*
X136842500Y-131064000D01*
X142811500Y-125095000D02*
X142811500Y-131064000D01*
X136842500Y-125095000D02*
X142811500Y-125095000D01*
G04 #@! TO.C,SW9*
X156908500Y-110871000D02*
X156908500Y-104902000D01*
X162877500Y-110871000D02*
X156908500Y-110871000D01*
X162877500Y-104902000D02*
X162877500Y-110871000D01*
X156908500Y-104902000D02*
X162877500Y-104902000D01*
G04 #@! TO.C,SW10*
X150812500Y-125095000D02*
X156781500Y-125095000D01*
X156781500Y-125095000D02*
X156781500Y-131064000D01*
X156781500Y-131064000D02*
X150812500Y-131064000D01*
X150812500Y-131064000D02*
X150812500Y-125095000D01*
G04 #@! TO.C,SW11*
X116840000Y-104902000D02*
X122809000Y-104902000D01*
X122809000Y-104902000D02*
X122809000Y-110871000D01*
X122809000Y-110871000D02*
X116840000Y-110871000D01*
X116840000Y-110871000D02*
X116840000Y-104902000D01*
G04 #@! TO.C,SW12*
X170878500Y-110871000D02*
X170878500Y-104902000D01*
X176847500Y-110871000D02*
X170878500Y-110871000D01*
X176847500Y-104902000D02*
X176847500Y-110871000D01*
X170878500Y-104902000D02*
X176847500Y-104902000D01*
G04 #@! TO.C,LS2*
X169481500Y-123571000D02*
X177546000Y-123571000D01*
X177546000Y-123571000D02*
X177546000Y-139700000D01*
X177546000Y-139700000D02*
X161417000Y-139700000D01*
X161417000Y-139700000D02*
X161417000Y-123571000D01*
X161417000Y-123571000D02*
X169481500Y-123571000D01*
G04 #@! TO.C,U3*
X180685069Y-46418500D02*
G75*
G03X180685069Y-46418500I-3012069J0D01*
G01*
G04 #@! TO.C,U5*
X119090069Y-46418500D02*
G75*
G03X119090069Y-46418500I-3012069J0D01*
G01*
G04 #@! TO.C,U4*
X139156069Y-139623800D02*
G75*
G03X139156069Y-139623800I-3012069J0D01*
G01*
G04 #@! TO.C,U1*
D12*
X161234250Y-79859522D02*
X161234250Y-80145237D01*
X161234250Y-80002380D02*
X160734250Y-80002380D01*
X160805679Y-80049999D01*
X160853298Y-80097618D01*
X160877107Y-80145237D01*
X161234250Y-63333618D02*
X161234250Y-63619332D01*
X161234250Y-63476475D02*
X160734250Y-63476475D01*
X160805679Y-63524094D01*
X160853298Y-63571713D01*
X160877107Y-63619332D01*
X160948536Y-63047903D02*
X160924726Y-63095522D01*
X160900917Y-63119332D01*
X160853298Y-63143141D01*
X160829488Y-63143141D01*
X160781869Y-63119332D01*
X160758060Y-63095522D01*
X160734250Y-63047903D01*
X160734250Y-62952665D01*
X160758060Y-62905046D01*
X160781869Y-62881237D01*
X160829488Y-62857427D01*
X160853298Y-62857427D01*
X160900917Y-62881237D01*
X160924726Y-62905046D01*
X160948536Y-62952665D01*
X160948536Y-63047903D01*
X160972345Y-63095522D01*
X160996155Y-63119332D01*
X161043774Y-63143141D01*
X161139012Y-63143141D01*
X161186631Y-63119332D01*
X161210440Y-63095522D01*
X161234250Y-63047903D01*
X161234250Y-62952665D01*
X161210440Y-62905046D01*
X161186631Y-62881237D01*
X161139012Y-62857427D01*
X161043774Y-62857427D01*
X160996155Y-62881237D01*
X160972345Y-62905046D01*
X160948536Y-62952665D01*
D11*
X157280631Y-71861656D02*
X157813964Y-71671180D01*
X157280631Y-71480703D01*
X158004464Y-69772465D02*
X158004464Y-70153418D01*
X157204464Y-70153418D01*
X157585417Y-69505799D02*
X157585417Y-69239132D01*
X158004464Y-69124846D02*
X158004464Y-69505799D01*
X157204464Y-69505799D01*
X157204464Y-69124846D01*
X158004464Y-68781989D02*
X157204464Y-68781989D01*
X157204464Y-68591513D01*
X157242560Y-68477227D01*
X157318750Y-68401037D01*
X157394940Y-68362941D01*
X157547321Y-68324846D01*
X157661607Y-68324846D01*
X157813988Y-68362941D01*
X157890179Y-68401037D01*
X157966369Y-68477227D01*
X158004464Y-68591513D01*
X158004464Y-68781989D01*
X162576464Y-69772465D02*
X162576464Y-70153418D01*
X161776464Y-70153418D01*
X162157417Y-69505799D02*
X162157417Y-69239132D01*
X162576464Y-69124846D02*
X162576464Y-69505799D01*
X161776464Y-69505799D01*
X161776464Y-69124846D01*
X162576464Y-68781989D02*
X161776464Y-68781989D01*
X161776464Y-68591513D01*
X161814560Y-68477227D01*
X161890750Y-68401037D01*
X161966940Y-68362941D01*
X162119321Y-68324846D01*
X162233607Y-68324846D01*
X162385988Y-68362941D01*
X162462179Y-68401037D01*
X162538369Y-68477227D01*
X162576464Y-68591513D01*
X162576464Y-68781989D01*
X162043131Y-71861656D02*
X162576464Y-71671180D01*
X162043131Y-71480703D01*
X157015560Y-72615775D02*
X156967940Y-72711013D01*
X156967940Y-72853870D01*
X157015560Y-72996727D01*
X157110798Y-73091965D01*
X157206036Y-73139584D01*
X157396512Y-73187203D01*
X157539369Y-73187203D01*
X157729845Y-73139584D01*
X157825083Y-73091965D01*
X157920321Y-72996727D01*
X157967940Y-72853870D01*
X157967940Y-72758632D01*
X157920321Y-72615775D01*
X157872702Y-72568156D01*
X157539369Y-72568156D01*
X157539369Y-72758632D01*
X161841560Y-72615775D02*
X161793940Y-72711013D01*
X161793940Y-72853870D01*
X161841560Y-72996727D01*
X161936798Y-73091965D01*
X162032036Y-73139584D01*
X162222512Y-73187203D01*
X162365369Y-73187203D01*
X162555845Y-73139584D01*
X162651083Y-73091965D01*
X162746321Y-72996727D01*
X162793940Y-72853870D01*
X162793940Y-72758632D01*
X162746321Y-72615775D01*
X162698702Y-72568156D01*
X162365369Y-72568156D01*
X162365369Y-72758632D01*
X156952060Y-78203775D02*
X156904440Y-78299013D01*
X156904440Y-78441870D01*
X156952060Y-78584727D01*
X157047298Y-78679965D01*
X157142536Y-78727584D01*
X157333012Y-78775203D01*
X157475869Y-78775203D01*
X157666345Y-78727584D01*
X157761583Y-78679965D01*
X157856821Y-78584727D01*
X157904440Y-78441870D01*
X157904440Y-78346632D01*
X157856821Y-78203775D01*
X157809202Y-78156156D01*
X157475869Y-78156156D01*
X157475869Y-78346632D01*
X161841560Y-78203775D02*
X161793940Y-78299013D01*
X161793940Y-78441870D01*
X161841560Y-78584727D01*
X161936798Y-78679965D01*
X162032036Y-78727584D01*
X162222512Y-78775203D01*
X162365369Y-78775203D01*
X162555845Y-78727584D01*
X162651083Y-78679965D01*
X162746321Y-78584727D01*
X162793940Y-78441870D01*
X162793940Y-78346632D01*
X162746321Y-78203775D01*
X162698702Y-78156156D01*
X162365369Y-78156156D01*
X162365369Y-78346632D01*
G04 #@! TO.C,U2*
X150845804Y-48229900D02*
X150750566Y-48182280D01*
X150607709Y-48182280D01*
X150464852Y-48229900D01*
X150369614Y-48325138D01*
X150321995Y-48420376D01*
X150274376Y-48610852D01*
X150274376Y-48753709D01*
X150321995Y-48944185D01*
X150369614Y-49039423D01*
X150464852Y-49134661D01*
X150607709Y-49182280D01*
X150702947Y-49182280D01*
X150845804Y-49134661D01*
X150893423Y-49087042D01*
X150893423Y-48753709D01*
X150702947Y-48753709D01*
X147583566Y-48245780D02*
X147916900Y-49245780D01*
X148250233Y-48245780D01*
X145686423Y-49245780D02*
X145353090Y-48769590D01*
X145114995Y-49245780D02*
X145114995Y-48245780D01*
X145495947Y-48245780D01*
X145591185Y-48293400D01*
X145638804Y-48341019D01*
X145686423Y-48436257D01*
X145686423Y-48579114D01*
X145638804Y-48674352D01*
X145591185Y-48721971D01*
X145495947Y-48769590D01*
X145114995Y-48769590D01*
X143209923Y-49245780D02*
X142733733Y-49245780D01*
X142733733Y-48245780D01*
G04 #@! TD*
M02*
