G04 #@! TF.GenerationSoftware,KiCad,Pcbnew,5.0.2+dfsg1-1~bpo9+1*
G04 #@! TF.CreationDate,2019-01-24T11:26:08+00:00*
G04 #@! TF.ProjectId,zeroboy_new_front,7a65726f-626f-4795-9f6e-65775f66726f,rev?*
G04 #@! TF.SameCoordinates,Original*
G04 #@! TF.FileFunction,Copper,L1,Top*
G04 #@! TF.FilePolarity,Positive*
%FSLAX46Y46*%
G04 Gerber Fmt 4.6, Leading zero omitted, Abs format (unit mm)*
G04 Created by KiCad (PCBNEW 5.0.2+dfsg1-1~bpo9+1) date Thu 24 Jan 2019 11:26:08 GMT*
%MOMM*%
%LPD*%
G01*
G04 APERTURE LIST*
G04 #@! TA.AperFunction,SMDPad,CuDef*
%ADD10R,2.000000X1.500000*%
G04 #@! TD*
G04 #@! TA.AperFunction,ComponentPad*
%ADD11C,3.500000*%
G04 #@! TD*
G04 #@! TA.AperFunction,SMDPad,CuDef*
%ADD12R,3.000000X0.400000*%
G04 #@! TD*
G04 #@! TA.AperFunction,SMDPad,CuDef*
%ADD13R,1.524000X3.000000*%
G04 #@! TD*
G04 #@! TA.AperFunction,ComponentPad*
%ADD14C,1.600000*%
G04 #@! TD*
G04 #@! TA.AperFunction,ViaPad*
%ADD15C,0.800000*%
G04 #@! TD*
G04 #@! TA.AperFunction,Conductor*
%ADD16C,0.250000*%
G04 #@! TD*
G04 #@! TA.AperFunction,Conductor*
%ADD17C,0.500000*%
G04 #@! TD*
G04 APERTURE END LIST*
D10*
G04 #@! TO.P,SW7,2*
G04 #@! TO.N,Net-(J1-Pad6)*
X130810000Y-107886500D03*
G04 #@! TO.P,SW7,1*
G04 #@! TO.N,Net-(J1-Pad35)*
X136779000Y-107886500D03*
G04 #@! TD*
D11*
G04 #@! TO.P,U6,1*
G04 #@! TO.N,Net-(U6-Pad1)*
X157632400Y-139623800D03*
G04 #@! TD*
D12*
G04 #@! TO.P,U1,1*
G04 #@! TO.N,Net-(J1-Pad6)*
X159865060Y-78465680D03*
G04 #@! TO.P,U1,2*
G04 #@! TO.N,Net-(J1-Pad13)*
X159865060Y-77665580D03*
G04 #@! TO.P,U1,3*
G04 #@! TO.N,Net-(J1-Pad23)*
X159865060Y-76865480D03*
G04 #@! TO.P,U1,4*
G04 #@! TO.N,Net-(J1-Pad22)*
X159865060Y-76065380D03*
G04 #@! TO.P,U1,5*
G04 #@! TO.N,Net-(J1-Pad24)*
X159865060Y-75265280D03*
G04 #@! TO.P,U1,6*
G04 #@! TO.N,Net-(J1-Pad19)*
X159865060Y-74465180D03*
G04 #@! TO.P,U1,7*
G04 #@! TO.N,Net-(U1-Pad7)*
X159865060Y-73665080D03*
G04 #@! TO.P,U1,8*
G04 #@! TO.N,Net-(J1-Pad6)*
X159865060Y-72864980D03*
G04 #@! TO.P,U1,9*
G04 #@! TO.N,Net-(J1-Pad1)*
X159865060Y-72064880D03*
G04 #@! TO.P,U1,10*
X159865060Y-71264780D03*
G04 #@! TO.P,U1,11*
G04 #@! TO.N,Net-(R1-Pad1)*
X159865060Y-70464680D03*
G04 #@! TO.P,U1,12*
X159865060Y-69664580D03*
G04 #@! TO.P,U1,13*
X159865060Y-68864480D03*
G04 #@! TO.P,U1,14*
X159865060Y-68064380D03*
G04 #@! TO.P,U1,15*
G04 #@! TO.N,Net-(U1-Pad15)*
X159865060Y-67264280D03*
G04 #@! TO.P,U1,16*
G04 #@! TO.N,Net-(U1-Pad16)*
X159865060Y-66464180D03*
G04 #@! TO.P,U1,17*
G04 #@! TO.N,Net-(U1-Pad17)*
X159865060Y-65664080D03*
G04 #@! TO.P,U1,18*
G04 #@! TO.N,Net-(U1-Pad18)*
X159865060Y-64863980D03*
G04 #@! TD*
D13*
G04 #@! TO.P,LS1,1*
G04 #@! TO.N,Net-(J1-Pad33)*
X115887500Y-131635500D03*
G04 #@! TO.P,LS1,2*
G04 #@! TO.N,Net-(J1-Pad6)*
X132588000Y-131635500D03*
G04 #@! TD*
D10*
G04 #@! TO.P,SW2,1*
G04 #@! TO.N,Net-(J1-Pad11)*
X169926000Y-100901500D03*
G04 #@! TO.P,SW2,2*
G04 #@! TO.N,Net-(J1-Pad6)*
X163957000Y-100901500D03*
G04 #@! TD*
G04 #@! TO.P,SW3,1*
G04 #@! TO.N,Net-(J1-Pad38)*
X129794000Y-100838000D03*
G04 #@! TO.P,SW3,2*
G04 #@! TO.N,Net-(J1-Pad6)*
X123825000Y-100838000D03*
G04 #@! TD*
G04 #@! TO.P,SW4,2*
G04 #@! TO.N,Net-(J1-Pad6)*
X123825000Y-114871500D03*
G04 #@! TO.P,SW4,1*
G04 #@! TO.N,Net-(J1-Pad29)*
X129794000Y-114871500D03*
G04 #@! TD*
G04 #@! TO.P,SW5,1*
G04 #@! TO.N,Net-(J1-Pad7)*
X169926000Y-114871500D03*
G04 #@! TO.P,SW5,2*
G04 #@! TO.N,Net-(J1-Pad6)*
X163957000Y-114871500D03*
G04 #@! TD*
G04 #@! TO.P,SW8,2*
G04 #@! TO.N,Net-(J1-Pad6)*
X136842500Y-128079500D03*
G04 #@! TO.P,SW8,1*
G04 #@! TO.N,Net-(J1-Pad32)*
X142811500Y-128079500D03*
G04 #@! TD*
G04 #@! TO.P,SW9,2*
G04 #@! TO.N,Net-(J1-Pad6)*
X156908500Y-107886500D03*
G04 #@! TO.P,SW9,1*
G04 #@! TO.N,Net-(J1-Pad15)*
X162877500Y-107886500D03*
G04 #@! TD*
G04 #@! TO.P,SW10,1*
G04 #@! TO.N,Net-(J1-Pad18)*
X156781500Y-128079500D03*
G04 #@! TO.P,SW10,2*
G04 #@! TO.N,Net-(J1-Pad6)*
X150812500Y-128079500D03*
G04 #@! TD*
G04 #@! TO.P,SW11,1*
G04 #@! TO.N,Net-(J1-Pad37)*
X122809000Y-107886500D03*
G04 #@! TO.P,SW11,2*
G04 #@! TO.N,Net-(J1-Pad6)*
X116840000Y-107886500D03*
G04 #@! TD*
G04 #@! TO.P,SW12,2*
G04 #@! TO.N,Net-(J1-Pad6)*
X170878500Y-107886500D03*
G04 #@! TO.P,SW12,1*
G04 #@! TO.N,Net-(J1-Pad16)*
X176847500Y-107886500D03*
G04 #@! TD*
D14*
G04 #@! TO.P,U2,1*
G04 #@! TO.N,Net-(J1-Pad31)*
X142900400Y-47142400D03*
G04 #@! TO.P,U2,2*
G04 #@! TO.N,Net-(J1-Pad40)*
X145440400Y-47142400D03*
G04 #@! TO.P,U2,3*
G04 #@! TO.N,Net-(J1-Pad2)*
X147980400Y-47142400D03*
G04 #@! TO.P,U2,4*
G04 #@! TO.N,Net-(J1-Pad6)*
X150520400Y-47142400D03*
G04 #@! TD*
D13*
G04 #@! TO.P,LS2,1*
G04 #@! TO.N,Net-(J1-Pad12)*
X177800000Y-131572000D03*
G04 #@! TO.P,LS2,2*
G04 #@! TO.N,Net-(J1-Pad6)*
X161099500Y-131572000D03*
G04 #@! TD*
D11*
G04 #@! TO.P,U3,1*
G04 #@! TO.N,Net-(U3-Pad1)*
X177673000Y-46418500D03*
G04 #@! TD*
G04 #@! TO.P,U5,1*
G04 #@! TO.N,Net-(U5-Pad1)*
X116078000Y-46418500D03*
G04 #@! TD*
G04 #@! TO.P,U4,1*
G04 #@! TO.N,Net-(U4-Pad1)*
X136144000Y-139623800D03*
G04 #@! TD*
D15*
G04 #@! TO.N,Net-(J1-Pad1)*
X170624500Y-78486000D03*
G04 #@! TO.N,Net-(J1-Pad2)*
X170942000Y-86868000D03*
G04 #@! TO.N,Net-(J1-Pad7)*
X176784000Y-86106000D03*
G04 #@! TO.N,Net-(J1-Pad11)*
X158305500Y-84899500D03*
G04 #@! TO.N,Net-(J1-Pad12)*
X153987500Y-101409500D03*
G04 #@! TO.N,Net-(J1-Pad13)*
X156273500Y-79311500D03*
G04 #@! TO.N,Net-(J1-Pad15)*
X152146000Y-85598000D03*
G04 #@! TO.N,Net-(J1-Pad16)*
X154686000Y-94170500D03*
G04 #@! TO.N,Net-(J1-Pad18)*
X150685500Y-92964000D03*
G04 #@! TO.N,Net-(J1-Pad19)*
X148971000Y-76708000D03*
G04 #@! TO.N,Net-(J1-Pad22)*
X145605500Y-86169500D03*
G04 #@! TO.N,Net-(J1-Pad23)*
X147193000Y-79756000D03*
G04 #@! TO.N,Net-(J1-Pad24)*
X141732000Y-86614000D03*
G04 #@! TO.N,Net-(J1-Pad29)*
X134112000Y-85090000D03*
G04 #@! TO.N,Net-(J1-Pad32)*
X137985500Y-94488000D03*
G04 #@! TO.N,Net-(J1-Pad33)*
X130175000Y-78930500D03*
G04 #@! TO.N,Net-(J1-Pad35)*
X127825500Y-86233000D03*
G04 #@! TO.N,Net-(J1-Pad37)*
X123698000Y-84518500D03*
G04 #@! TO.N,Net-(J1-Pad38)*
X125222000Y-92710000D03*
G04 #@! TO.N,Net-(J1-Pad40)*
X117348000Y-76708000D03*
G04 #@! TO.N,Net-(R1-Pad1)*
X150006500Y-70219000D03*
G04 #@! TO.N,Net-(J1-Pad6)*
X152273000Y-72707500D03*
X164592000Y-87122000D03*
X160274000Y-127508000D03*
X136652000Y-125730000D03*
X149860000Y-125222000D03*
X124968000Y-112014000D03*
X128270000Y-107950000D03*
X119126000Y-107696000D03*
X124206000Y-98298000D03*
X133604000Y-128016000D03*
X162814000Y-112522000D03*
X167894000Y-107696000D03*
X155448000Y-105410000D03*
X162560000Y-98552000D03*
G04 #@! TD*
D16*
G04 #@! TO.N,Net-(J1-Pad1)*
X159865060Y-71264780D02*
X161615060Y-71264780D01*
X167195500Y-75057000D02*
X170624500Y-78486000D01*
X165407280Y-75057000D02*
X167195500Y-75057000D01*
X162257680Y-72707500D02*
X163057780Y-72707500D01*
X161615060Y-72064880D02*
X162257680Y-72707500D01*
X159865060Y-72064880D02*
X161615060Y-72064880D01*
X161615060Y-71264780D02*
X163057780Y-72707500D01*
X163057780Y-72707500D02*
X165407280Y-75057000D01*
D17*
G04 #@! TO.N,Net-(J1-Pad2)*
X147980400Y-48273770D02*
X161428630Y-61722000D01*
X147980400Y-47142400D02*
X147980400Y-48273770D01*
X161428630Y-61722000D02*
X167894000Y-61722000D01*
X167894000Y-61722000D02*
X174244000Y-68072000D01*
X174244000Y-83566000D02*
X170942000Y-86868000D01*
X174244000Y-68072000D02*
X174244000Y-83566000D01*
D16*
G04 #@! TO.N,Net-(J1-Pad7)*
X171176000Y-114871500D02*
X173017500Y-113030000D01*
X169926000Y-114871500D02*
X171176000Y-114871500D01*
X173017500Y-113030000D02*
X176784000Y-113030000D01*
X176784000Y-113030000D02*
X179324000Y-110490000D01*
X179324000Y-88646000D02*
X176784000Y-86106000D01*
X179324000Y-110490000D02*
X179324000Y-88646000D01*
G04 #@! TO.N,Net-(J1-Pad11)*
X169926000Y-96520000D02*
X158305500Y-84899500D01*
X169926000Y-100901500D02*
X169926000Y-96520000D01*
G04 #@! TO.N,Net-(J1-Pad12)*
X176788000Y-131572000D02*
X164151500Y-118935500D01*
X177800000Y-131572000D02*
X176788000Y-131572000D01*
X164151500Y-118935500D02*
X162941000Y-118935500D01*
X153987500Y-109982000D02*
X153987500Y-101409500D01*
X162941000Y-118935500D02*
X153987500Y-109982000D01*
G04 #@! TO.N,Net-(J1-Pad13)*
X157919420Y-77665580D02*
X156273500Y-79311500D01*
X159865060Y-77665580D02*
X157919420Y-77665580D01*
G04 #@! TO.N,Net-(J1-Pad15)*
X161627500Y-107886500D02*
X156464000Y-102723000D01*
X162877500Y-107886500D02*
X161627500Y-107886500D01*
X156464000Y-102723000D02*
X156464000Y-101092000D01*
X156464000Y-101092000D02*
X151892000Y-96520000D01*
X151892000Y-85852000D02*
X152146000Y-85598000D01*
X151892000Y-96520000D02*
X151892000Y-85852000D01*
G04 #@! TO.N,Net-(J1-Pad16)*
X175597500Y-107886500D02*
X173248000Y-105537000D01*
X176847500Y-107886500D02*
X175597500Y-107886500D01*
X173248000Y-105537000D02*
X166116000Y-105537000D01*
X164274500Y-103695500D02*
X162115500Y-103695500D01*
X166116000Y-105537000D02*
X164274500Y-103695500D01*
X154686000Y-96266000D02*
X154686000Y-94170500D01*
X162115500Y-103695500D02*
X154686000Y-96266000D01*
G04 #@! TO.N,Net-(J1-Pad18)*
X156781500Y-128079500D02*
X156781500Y-127079500D01*
X150685500Y-103998502D02*
X150685500Y-92964000D01*
X156781500Y-127079500D02*
X150685500Y-120983500D01*
X150685500Y-120983500D02*
X150685500Y-103998502D01*
G04 #@! TO.N,Net-(J1-Pad19)*
X158115060Y-74465180D02*
X157627380Y-73977500D01*
X159865060Y-74465180D02*
X158115060Y-74465180D01*
X157627380Y-73977500D02*
X153479500Y-73977500D01*
X153479500Y-73977500D02*
X150749000Y-76708000D01*
X150749000Y-76708000D02*
X148971000Y-76708000D01*
G04 #@! TO.N,Net-(J1-Pad22)*
X158115060Y-76065380D02*
X157868680Y-75819000D01*
X159865060Y-76065380D02*
X158115060Y-76065380D01*
X157868680Y-75819000D02*
X153797000Y-75819000D01*
X153797000Y-75819000D02*
X151257000Y-78359000D01*
X151257000Y-78359000D02*
X147256500Y-78359000D01*
X145605500Y-80010000D02*
X145605500Y-86169500D01*
X147256500Y-78359000D02*
X145605500Y-80010000D01*
G04 #@! TO.N,Net-(J1-Pad23)*
X159865060Y-76865480D02*
X154719020Y-76865480D01*
X151828500Y-79756000D02*
X147193000Y-79756000D01*
X154719020Y-76865480D02*
X151828500Y-79756000D01*
G04 #@! TO.N,Net-(J1-Pad24)*
X158115060Y-75265280D02*
X157779780Y-74930000D01*
X159865060Y-75265280D02*
X158115060Y-75265280D01*
X157779780Y-74930000D02*
X153670000Y-74930000D01*
X153670000Y-74930000D02*
X152400000Y-76200000D01*
X151166999Y-77433001D02*
X143038999Y-77433001D01*
X152400000Y-76200000D02*
X151166999Y-77433001D01*
X141732000Y-78740000D02*
X141732000Y-86614000D01*
X143038999Y-77433001D02*
X141732000Y-78740000D01*
G04 #@! TO.N,Net-(J1-Pad29)*
X131044000Y-114871500D02*
X133393500Y-112522000D01*
X129794000Y-114871500D02*
X131044000Y-114871500D01*
X133393500Y-112522000D02*
X137922000Y-112522000D01*
X137922000Y-112522000D02*
X139700000Y-110744000D01*
X139700000Y-110744000D02*
X139700000Y-101346000D01*
X139700000Y-101346000D02*
X131572000Y-93218000D01*
X131572000Y-87630000D02*
X134112000Y-85090000D01*
X131572000Y-93218000D02*
X131572000Y-87630000D01*
G04 #@! TO.N,Net-(J1-Pad32)*
X142811500Y-99314000D02*
X137985500Y-94488000D01*
X142811500Y-128079500D02*
X142811500Y-99314000D01*
G04 #@! TO.N,Net-(J1-Pad33)*
X122301000Y-78295500D02*
X129540000Y-78295500D01*
X129540000Y-78295500D02*
X130175000Y-78930500D01*
X114300000Y-86296500D02*
X122301000Y-78295500D01*
X114300000Y-111315500D02*
X114300000Y-86296500D01*
X115887500Y-112903000D02*
X114300000Y-111315500D01*
X115887500Y-131635500D02*
X115887500Y-112903000D01*
G04 #@! TO.N,Net-(J1-Pad35)*
X136779000Y-107886500D02*
X136779000Y-102108000D01*
X127825500Y-93154500D02*
X127825500Y-86233000D01*
X136779000Y-102108000D02*
X127825500Y-93154500D01*
G04 #@! TO.N,Net-(J1-Pad37)*
X122809000Y-106886500D02*
X119888000Y-103965500D01*
X122809000Y-107886500D02*
X122809000Y-106886500D01*
X119888000Y-88328500D02*
X123698000Y-84518500D01*
X119888000Y-103965500D02*
X119888000Y-88328500D01*
G04 #@! TO.N,Net-(J1-Pad38)*
X129794000Y-97282000D02*
X125222000Y-92710000D01*
X129794000Y-100838000D02*
X129794000Y-97282000D01*
G04 #@! TO.N,Net-(J1-Pad40)*
X144315399Y-48267401D02*
X144315399Y-58122601D01*
X145440400Y-47142400D02*
X144315399Y-48267401D01*
X144315399Y-58122601D02*
X131064000Y-71374000D01*
X122682000Y-71374000D02*
X117348000Y-76708000D01*
X131064000Y-71374000D02*
X122682000Y-71374000D01*
G04 #@! TO.N,Net-(R1-Pad1)*
X156959300Y-70464680D02*
X159865060Y-70464680D01*
X156505859Y-70011239D02*
X156959300Y-70464680D01*
X158115060Y-69664580D02*
X157866140Y-69415660D01*
X159865060Y-69664580D02*
X158115060Y-69664580D01*
X157866140Y-69415660D02*
X156246779Y-69415660D01*
X156246779Y-69415660D02*
X155651200Y-70011239D01*
X155651200Y-70011239D02*
X156505859Y-70011239D01*
X158115060Y-68864480D02*
X158112520Y-68867020D01*
X159865060Y-68864480D02*
X158115060Y-68864480D01*
X158112520Y-68867020D02*
X155634639Y-68867020D01*
X154490420Y-70011239D02*
X155651200Y-70011239D01*
X155634639Y-68867020D02*
X154490420Y-70011239D01*
X158115060Y-68064380D02*
X158109980Y-68059300D01*
X159865060Y-68064380D02*
X158115060Y-68064380D01*
X155375559Y-68059300D02*
X153423620Y-70011239D01*
X153423620Y-70011239D02*
X154490420Y-70011239D01*
X158109980Y-68059300D02*
X155375559Y-68059300D01*
X153423620Y-70011239D02*
X152548739Y-70011239D01*
X150214261Y-70011239D02*
X150006500Y-70219000D01*
X152548739Y-70011239D02*
X150214261Y-70011239D01*
G04 #@! TO.N,Net-(J1-Pad6)*
X161615060Y-72864980D02*
X162219580Y-73469500D01*
X159865060Y-72864980D02*
X161615060Y-72864980D01*
X161615060Y-78465680D02*
X159865060Y-78465680D01*
X162219580Y-77861160D02*
X161615060Y-78465680D01*
X162219580Y-73469500D02*
X162219580Y-77861160D01*
X158115060Y-72864980D02*
X157068580Y-71818500D01*
X159865060Y-72864980D02*
X158115060Y-72864980D01*
X153162000Y-71818500D02*
X152273000Y-72707500D01*
X157068580Y-71818500D02*
X153162000Y-71818500D01*
X162219580Y-84749580D02*
X164592000Y-87122000D01*
X162219580Y-77861160D02*
X162219580Y-84749580D01*
D17*
X161099500Y-128333500D02*
X160274000Y-127508000D01*
X161099500Y-131572000D02*
X161099500Y-128333500D01*
X136842500Y-125920500D02*
X136652000Y-125730000D01*
X136842500Y-128079500D02*
X136842500Y-125920500D01*
X150812500Y-126829500D02*
X149860000Y-125877000D01*
X150812500Y-128079500D02*
X150812500Y-126829500D01*
X149860000Y-125877000D02*
X149860000Y-125222000D01*
X123825000Y-113157000D02*
X124968000Y-112014000D01*
X123825000Y-114871500D02*
X123825000Y-113157000D01*
X128333500Y-107886500D02*
X128270000Y-107950000D01*
X130810000Y-107886500D02*
X128333500Y-107886500D01*
X118935500Y-107886500D02*
X119126000Y-107696000D01*
X116840000Y-107886500D02*
X118935500Y-107886500D01*
X123825000Y-99588000D02*
X124206000Y-99207000D01*
X123825000Y-100838000D02*
X123825000Y-99588000D01*
X124206000Y-99207000D02*
X124206000Y-98298000D01*
X132588000Y-129032000D02*
X133604000Y-128016000D01*
X132588000Y-131635500D02*
X132588000Y-129032000D01*
X163957000Y-113665000D02*
X162814000Y-112522000D01*
X163957000Y-114871500D02*
X163957000Y-113665000D01*
X168084500Y-107886500D02*
X167894000Y-107696000D01*
X170878500Y-107886500D02*
X168084500Y-107886500D01*
X156908500Y-106870500D02*
X155448000Y-105410000D01*
X156908500Y-107886500D02*
X156908500Y-106870500D01*
X163957000Y-99949000D02*
X162560000Y-98552000D01*
X163957000Y-100901500D02*
X163957000Y-99949000D01*
G04 #@! TD*
M02*
