M48
METRIC,TZ
T1C0.600
T2C0.850
T3C1.000
T4C1.200
T5C3.000
%
G90
G05
T2
X166093Y-47500
X171093Y-47500
T3
X138494Y-51435
X138494Y-53975
X138494Y-56515
X138494Y-59055
X138494Y-61595
X138494Y-64135
X138494Y-66675
X142900Y-47142
X145440Y-47142
X147980Y-47142
X150520Y-47142
X122999Y-46165
X125540Y-46165
X128080Y-46165
X145669Y-60325
X147701Y-60325
T4
X154623Y-45911
X161226Y-45911
T5
X177673Y-46418
X157632Y-139624
X116078Y-46418
X136144Y-139624
T1
X165093Y-45150G85X165093Y-44450
G05
X172093Y-44450G85X172093Y-45150
G05
T0
M30
