G04 #@! TF.GenerationSoftware,KiCad,Pcbnew,5.0.2+dfsg1-1~bpo9+1*
G04 #@! TF.CreationDate,2019-01-08T10:19:29+00:00*
G04 #@! TF.ProjectId,zeroboy_new_back,7a65726f-626f-4795-9f6e-65775f626163,rev?*
G04 #@! TF.SameCoordinates,Original*
G04 #@! TF.FileFunction,Copper,L2,Bot*
G04 #@! TF.FilePolarity,Positive*
%FSLAX46Y46*%
G04 Gerber Fmt 4.6, Leading zero omitted, Abs format (unit mm)*
G04 Created by KiCad (PCBNEW 5.0.2+dfsg1-1~bpo9+1) date Tue 08 Jan 2019 10:19:29 GMT*
%MOMM*%
%LPD*%
G01*
G04 APERTURE LIST*
G04 #@! TA.AperFunction,ComponentPad*
%ADD10C,3.500000*%
G04 #@! TD*
G04 #@! TA.AperFunction,ComponentPad*
%ADD11C,1.600000*%
G04 #@! TD*
G04 #@! TA.AperFunction,ComponentPad*
%ADD12C,1.800000*%
G04 #@! TD*
G04 #@! TA.AperFunction,SMDPad,CuDef*
%ADD13R,2.000000X1.500000*%
G04 #@! TD*
G04 #@! TA.AperFunction,ComponentPad*
%ADD14C,1.450000*%
G04 #@! TD*
G04 #@! TA.AperFunction,ComponentPad*
%ADD15O,1.200000X1.900000*%
G04 #@! TD*
G04 #@! TA.AperFunction,Conductor*
%ADD16C,0.500000*%
G04 #@! TD*
G04 #@! TA.AperFunction,Conductor*
%ADD17C,0.250000*%
G04 #@! TD*
G04 APERTURE END LIST*
D10*
G04 #@! TO.P,U6,1*
G04 #@! TO.N,Net-(U6-Pad1)*
X157632400Y-139623800D03*
G04 #@! TD*
D11*
G04 #@! TO.P,U2,1*
G04 #@! TO.N,Net-(SW4-Pad1)*
X142900400Y-47142400D03*
G04 #@! TO.P,U2,2*
G04 #@! TO.N,Net-(SW3-Pad1)*
X145440400Y-47142400D03*
G04 #@! TO.P,U2,3*
G04 #@! TO.N,Net-(SW1-Pad1)*
X147980400Y-47142400D03*
G04 #@! TO.P,U2,4*
G04 #@! TO.N,Net-(SW2-Pad2)*
X150520400Y-47142400D03*
G04 #@! TD*
D10*
G04 #@! TO.P,U3,1*
G04 #@! TO.N,Net-(U3-Pad1)*
X177673000Y-46418500D03*
G04 #@! TD*
G04 #@! TO.P,U5,1*
G04 #@! TO.N,Net-(U5-Pad1)*
X116078000Y-46418500D03*
G04 #@! TD*
G04 #@! TO.P,U4,1*
G04 #@! TO.N,Net-(U4-Pad1)*
X136144000Y-139623800D03*
G04 #@! TD*
D11*
G04 #@! TO.P,SW1,1*
G04 #@! TO.N,Net-(SW1-Pad1)*
X128079500Y-46164500D03*
G04 #@! TO.P,SW1,2*
G04 #@! TO.N,Net-(SW1-Pad2)*
X125539500Y-46164500D03*
G04 #@! TO.P,SW1,3*
G04 #@! TO.N,Net-(SW1-Pad3)*
X122999500Y-46164500D03*
G04 #@! TD*
D12*
G04 #@! TO.P,SW2,1*
G04 #@! TO.N,Net-(SW2-Pad1)*
X154622500Y-45910500D03*
G04 #@! TO.P,SW2,2*
G04 #@! TO.N,Net-(SW2-Pad2)*
X161226500Y-45910500D03*
G04 #@! TD*
D13*
G04 #@! TO.P,SW3,1*
G04 #@! TO.N,Net-(SW3-Pad1)*
X156654500Y-92964000D03*
G04 #@! TO.P,SW3,2*
G04 #@! TO.N,Net-(SW2-Pad2)*
X150685500Y-92964000D03*
G04 #@! TD*
G04 #@! TO.P,SW4,2*
G04 #@! TO.N,Net-(SW2-Pad2)*
X137223500Y-92964000D03*
G04 #@! TO.P,SW4,1*
G04 #@! TO.N,Net-(SW4-Pad1)*
X143192500Y-92964000D03*
G04 #@! TD*
D11*
G04 #@! TO.P,U1,1*
G04 #@! TO.N,Net-(U1-Pad1)*
X145669000Y-60325000D03*
G04 #@! TO.P,U1,2*
G04 #@! TO.N,Net-(U1-Pad2)*
X147701000Y-60325000D03*
G04 #@! TD*
G04 #@! TO.P,U7,1*
G04 #@! TO.N,Net-(J1-Pad1)*
X138493500Y-66675000D03*
G04 #@! TO.P,U7,2*
G04 #@! TO.N,Net-(J1-Pad5)*
X138493500Y-64135000D03*
G04 #@! TO.P,U7,3*
G04 #@! TO.N,Net-(U1-Pad2)*
X138493500Y-61595000D03*
G04 #@! TO.P,U7,4*
G04 #@! TO.N,Net-(U1-Pad1)*
X138493500Y-59055000D03*
G04 #@! TO.P,U7,5*
G04 #@! TO.N,Net-(SW2-Pad2)*
X138493500Y-56515000D03*
G04 #@! TO.P,U7,6*
G04 #@! TO.N,Net-(SW1-Pad2)*
X138493500Y-53975000D03*
G04 #@! TO.P,U7,7*
G04 #@! TO.N,Net-(SW2-Pad1)*
X138493500Y-51435000D03*
G04 #@! TD*
D14*
G04 #@! TO.P,J1,6*
G04 #@! TO.N,Net-(J1-Pad5)*
X171092500Y-47500000D03*
X166092500Y-47500000D03*
D15*
X172092500Y-44800000D03*
X165092500Y-44800000D03*
G04 #@! TD*
D16*
G04 #@! TO.N,Net-(SW1-Pad1)*
X147180401Y-46342401D02*
X147980400Y-47142400D01*
X146202501Y-45364501D02*
X147180401Y-46342401D01*
X128879499Y-45364501D02*
X146202501Y-45364501D01*
X128079500Y-46164500D02*
X128879499Y-45364501D01*
D17*
G04 #@! TO.N,Net-(SW2-Pad2)*
X151320399Y-47942399D02*
X151320399Y-53276399D01*
X150520400Y-47142400D02*
X151320399Y-47942399D01*
X155956000Y-57912000D02*
X155956000Y-85344000D01*
X151320399Y-53276399D02*
X155956000Y-57912000D01*
X155956000Y-85344000D02*
X160528000Y-89916000D01*
X160528000Y-89916000D02*
X160528000Y-94234000D01*
X160528000Y-94234000D02*
X156972000Y-97790000D01*
X138473500Y-92964000D02*
X137223500Y-92964000D01*
X143299500Y-97790000D02*
X138473500Y-92964000D01*
X154511500Y-97790000D02*
X155956000Y-97790000D01*
X150685500Y-93964000D02*
X154511500Y-97790000D01*
X150685500Y-92964000D02*
X150685500Y-93964000D01*
X156972000Y-97790000D02*
X155956000Y-97790000D01*
X155956000Y-97790000D02*
X143299500Y-97790000D01*
G04 #@! TO.N,Net-(SW3-Pad1)*
X156654500Y-91964000D02*
X152654000Y-87963500D01*
X156654500Y-92964000D02*
X156654500Y-91964000D01*
X152654000Y-87963500D02*
X152654000Y-58166000D01*
X145440400Y-50952400D02*
X145440400Y-47142400D01*
X152654000Y-58166000D02*
X145440400Y-50952400D01*
G04 #@! TO.N,Net-(SW4-Pad1)*
X142900400Y-92671900D02*
X143192500Y-92964000D01*
X142900400Y-47142400D02*
X142900400Y-92671900D01*
G04 #@! TD*
M02*
