G04 #@! TF.GenerationSoftware,KiCad,Pcbnew,5.0.2+dfsg1-1~bpo9+1*
G04 #@! TF.CreationDate,2019-01-08T10:19:29+00:00*
G04 #@! TF.ProjectId,zeroboy_new_back,7a65726f-626f-4795-9f6e-65775f626163,rev?*
G04 #@! TF.SameCoordinates,Original*
G04 #@! TF.FileFunction,Soldermask,Bot*
G04 #@! TF.FilePolarity,Negative*
%FSLAX46Y46*%
G04 Gerber Fmt 4.6, Leading zero omitted, Abs format (unit mm)*
G04 Created by KiCad (PCBNEW 5.0.2+dfsg1-1~bpo9+1) date Tue 08 Jan 2019 10:19:29 GMT*
%MOMM*%
%LPD*%
G01*
G04 APERTURE LIST*
%ADD10C,0.100000*%
G04 APERTURE END LIST*
D10*
G36*
X158201193Y-137748737D02*
X158556070Y-137895732D01*
X158875455Y-138109138D01*
X159147062Y-138380745D01*
X159360468Y-138700130D01*
X159507463Y-139055007D01*
X159582400Y-139431740D01*
X159582400Y-139815860D01*
X159507463Y-140192593D01*
X159360468Y-140547470D01*
X159147062Y-140866855D01*
X158875455Y-141138462D01*
X158556070Y-141351868D01*
X158201193Y-141498863D01*
X157824460Y-141573800D01*
X157440340Y-141573800D01*
X157063607Y-141498863D01*
X156708730Y-141351868D01*
X156389345Y-141138462D01*
X156117738Y-140866855D01*
X155904332Y-140547470D01*
X155757337Y-140192593D01*
X155682400Y-139815860D01*
X155682400Y-139431740D01*
X155757337Y-139055007D01*
X155904332Y-138700130D01*
X156117738Y-138380745D01*
X156389345Y-138109138D01*
X156708730Y-137895732D01*
X157063607Y-137748737D01*
X157440340Y-137673800D01*
X157824460Y-137673800D01*
X158201193Y-137748737D01*
X158201193Y-137748737D01*
G37*
G36*
X136712793Y-137748737D02*
X137067670Y-137895732D01*
X137387055Y-138109138D01*
X137658662Y-138380745D01*
X137872068Y-138700130D01*
X138019063Y-139055007D01*
X138094000Y-139431740D01*
X138094000Y-139815860D01*
X138019063Y-140192593D01*
X137872068Y-140547470D01*
X137658662Y-140866855D01*
X137387055Y-141138462D01*
X137067670Y-141351868D01*
X136712793Y-141498863D01*
X136336060Y-141573800D01*
X135951940Y-141573800D01*
X135575207Y-141498863D01*
X135220330Y-141351868D01*
X134900945Y-141138462D01*
X134629338Y-140866855D01*
X134415932Y-140547470D01*
X134268937Y-140192593D01*
X134194000Y-139815860D01*
X134194000Y-139431740D01*
X134268937Y-139055007D01*
X134415932Y-138700130D01*
X134629338Y-138380745D01*
X134900945Y-138109138D01*
X135220330Y-137895732D01*
X135575207Y-137748737D01*
X135951940Y-137673800D01*
X136336060Y-137673800D01*
X136712793Y-137748737D01*
X136712793Y-137748737D01*
G37*
G36*
X138423500Y-93914000D02*
X136023500Y-93914000D01*
X136023500Y-92014000D01*
X138423500Y-92014000D01*
X138423500Y-93914000D01*
X138423500Y-93914000D01*
G37*
G36*
X144392500Y-93914000D02*
X141992500Y-93914000D01*
X141992500Y-92014000D01*
X144392500Y-92014000D01*
X144392500Y-93914000D01*
X144392500Y-93914000D01*
G37*
G36*
X151885500Y-93914000D02*
X149485500Y-93914000D01*
X149485500Y-92014000D01*
X151885500Y-92014000D01*
X151885500Y-93914000D01*
X151885500Y-93914000D01*
G37*
G36*
X157854500Y-93914000D02*
X155454500Y-93914000D01*
X155454500Y-92014000D01*
X157854500Y-92014000D01*
X157854500Y-93914000D01*
X157854500Y-93914000D01*
G37*
G36*
X138669270Y-65690372D02*
X138785189Y-65713429D01*
X138967178Y-65788811D01*
X139130963Y-65898249D01*
X139270251Y-66037537D01*
X139379689Y-66201322D01*
X139455071Y-66383311D01*
X139493500Y-66576509D01*
X139493500Y-66773491D01*
X139455071Y-66966689D01*
X139379689Y-67148678D01*
X139270251Y-67312463D01*
X139130963Y-67451751D01*
X138967178Y-67561189D01*
X138785189Y-67636571D01*
X138669270Y-67659628D01*
X138591993Y-67675000D01*
X138395007Y-67675000D01*
X138317730Y-67659628D01*
X138201811Y-67636571D01*
X138019822Y-67561189D01*
X137856037Y-67451751D01*
X137716749Y-67312463D01*
X137607311Y-67148678D01*
X137531929Y-66966689D01*
X137493500Y-66773491D01*
X137493500Y-66576509D01*
X137531929Y-66383311D01*
X137607311Y-66201322D01*
X137716749Y-66037537D01*
X137856037Y-65898249D01*
X138019822Y-65788811D01*
X138201811Y-65713429D01*
X138317730Y-65690372D01*
X138395007Y-65675000D01*
X138591993Y-65675000D01*
X138669270Y-65690372D01*
X138669270Y-65690372D01*
G37*
G36*
X138669270Y-63150372D02*
X138785189Y-63173429D01*
X138967178Y-63248811D01*
X139130963Y-63358249D01*
X139270251Y-63497537D01*
X139379689Y-63661322D01*
X139455071Y-63843311D01*
X139493500Y-64036509D01*
X139493500Y-64233491D01*
X139455071Y-64426689D01*
X139379689Y-64608678D01*
X139270251Y-64772463D01*
X139130963Y-64911751D01*
X138967178Y-65021189D01*
X138785189Y-65096571D01*
X138669270Y-65119628D01*
X138591993Y-65135000D01*
X138395007Y-65135000D01*
X138317730Y-65119628D01*
X138201811Y-65096571D01*
X138019822Y-65021189D01*
X137856037Y-64911751D01*
X137716749Y-64772463D01*
X137607311Y-64608678D01*
X137531929Y-64426689D01*
X137493500Y-64233491D01*
X137493500Y-64036509D01*
X137531929Y-63843311D01*
X137607311Y-63661322D01*
X137716749Y-63497537D01*
X137856037Y-63358249D01*
X138019822Y-63248811D01*
X138201811Y-63173429D01*
X138317730Y-63150372D01*
X138395007Y-63135000D01*
X138591993Y-63135000D01*
X138669270Y-63150372D01*
X138669270Y-63150372D01*
G37*
G36*
X138669270Y-60610372D02*
X138785189Y-60633429D01*
X138967178Y-60708811D01*
X139130963Y-60818249D01*
X139270251Y-60957537D01*
X139379689Y-61121322D01*
X139455071Y-61303311D01*
X139493500Y-61496509D01*
X139493500Y-61693491D01*
X139455071Y-61886689D01*
X139379689Y-62068678D01*
X139270251Y-62232463D01*
X139130963Y-62371751D01*
X138967178Y-62481189D01*
X138785189Y-62556571D01*
X138669270Y-62579628D01*
X138591993Y-62595000D01*
X138395007Y-62595000D01*
X138317730Y-62579628D01*
X138201811Y-62556571D01*
X138019822Y-62481189D01*
X137856037Y-62371751D01*
X137716749Y-62232463D01*
X137607311Y-62068678D01*
X137531929Y-61886689D01*
X137493500Y-61693491D01*
X137493500Y-61496509D01*
X137531929Y-61303311D01*
X137607311Y-61121322D01*
X137716749Y-60957537D01*
X137856037Y-60818249D01*
X138019822Y-60708811D01*
X138201811Y-60633429D01*
X138317730Y-60610372D01*
X138395007Y-60595000D01*
X138591993Y-60595000D01*
X138669270Y-60610372D01*
X138669270Y-60610372D01*
G37*
G36*
X145844770Y-59340372D02*
X145960689Y-59363429D01*
X146142678Y-59438811D01*
X146306463Y-59548249D01*
X146445751Y-59687537D01*
X146555189Y-59851322D01*
X146569518Y-59885916D01*
X146581066Y-59907521D01*
X146596612Y-59926463D01*
X146615554Y-59942009D01*
X146637164Y-59953560D01*
X146660614Y-59960673D01*
X146685000Y-59963075D01*
X146709386Y-59960673D01*
X146732835Y-59953560D01*
X146754446Y-59942009D01*
X146773388Y-59926463D01*
X146788934Y-59907521D01*
X146800482Y-59885916D01*
X146814811Y-59851322D01*
X146924249Y-59687537D01*
X147063537Y-59548249D01*
X147227322Y-59438811D01*
X147409311Y-59363429D01*
X147525230Y-59340372D01*
X147602507Y-59325000D01*
X147799493Y-59325000D01*
X147876770Y-59340372D01*
X147992689Y-59363429D01*
X148174678Y-59438811D01*
X148338463Y-59548249D01*
X148477751Y-59687537D01*
X148587189Y-59851322D01*
X148662571Y-60033311D01*
X148701000Y-60226509D01*
X148701000Y-60423491D01*
X148662571Y-60616689D01*
X148587189Y-60798678D01*
X148477751Y-60962463D01*
X148338463Y-61101751D01*
X148174678Y-61211189D01*
X147992689Y-61286571D01*
X147876770Y-61309628D01*
X147799493Y-61325000D01*
X147602507Y-61325000D01*
X147525230Y-61309628D01*
X147409311Y-61286571D01*
X147227322Y-61211189D01*
X147063537Y-61101751D01*
X146924249Y-60962463D01*
X146814811Y-60798678D01*
X146800482Y-60764084D01*
X146788934Y-60742479D01*
X146773388Y-60723537D01*
X146754446Y-60707991D01*
X146732836Y-60696440D01*
X146709386Y-60689327D01*
X146685000Y-60686925D01*
X146660614Y-60689327D01*
X146637165Y-60696440D01*
X146615554Y-60707991D01*
X146596612Y-60723537D01*
X146581066Y-60742479D01*
X146569518Y-60764084D01*
X146555189Y-60798678D01*
X146445751Y-60962463D01*
X146306463Y-61101751D01*
X146142678Y-61211189D01*
X145960689Y-61286571D01*
X145844770Y-61309628D01*
X145767493Y-61325000D01*
X145570507Y-61325000D01*
X145493230Y-61309628D01*
X145377311Y-61286571D01*
X145195322Y-61211189D01*
X145031537Y-61101751D01*
X144892249Y-60962463D01*
X144782811Y-60798678D01*
X144707429Y-60616689D01*
X144669000Y-60423491D01*
X144669000Y-60226509D01*
X144707429Y-60033311D01*
X144782811Y-59851322D01*
X144892249Y-59687537D01*
X145031537Y-59548249D01*
X145195322Y-59438811D01*
X145377311Y-59363429D01*
X145493230Y-59340372D01*
X145570507Y-59325000D01*
X145767493Y-59325000D01*
X145844770Y-59340372D01*
X145844770Y-59340372D01*
G37*
G36*
X138669270Y-58070372D02*
X138785189Y-58093429D01*
X138967178Y-58168811D01*
X139130963Y-58278249D01*
X139270251Y-58417537D01*
X139379689Y-58581322D01*
X139455071Y-58763311D01*
X139493500Y-58956509D01*
X139493500Y-59153491D01*
X139455071Y-59346689D01*
X139379689Y-59528678D01*
X139270251Y-59692463D01*
X139130963Y-59831751D01*
X138967178Y-59941189D01*
X138785189Y-60016571D01*
X138669270Y-60039628D01*
X138591993Y-60055000D01*
X138395007Y-60055000D01*
X138317730Y-60039628D01*
X138201811Y-60016571D01*
X138019822Y-59941189D01*
X137856037Y-59831751D01*
X137716749Y-59692463D01*
X137607311Y-59528678D01*
X137531929Y-59346689D01*
X137493500Y-59153491D01*
X137493500Y-58956509D01*
X137531929Y-58763311D01*
X137607311Y-58581322D01*
X137716749Y-58417537D01*
X137856037Y-58278249D01*
X138019822Y-58168811D01*
X138201811Y-58093429D01*
X138317730Y-58070372D01*
X138395007Y-58055000D01*
X138591993Y-58055000D01*
X138669270Y-58070372D01*
X138669270Y-58070372D01*
G37*
G36*
X138669270Y-55530372D02*
X138785189Y-55553429D01*
X138967178Y-55628811D01*
X139130963Y-55738249D01*
X139270251Y-55877537D01*
X139379689Y-56041322D01*
X139455071Y-56223311D01*
X139493500Y-56416509D01*
X139493500Y-56613491D01*
X139455071Y-56806689D01*
X139379689Y-56988678D01*
X139270251Y-57152463D01*
X139130963Y-57291751D01*
X138967178Y-57401189D01*
X138785189Y-57476571D01*
X138669270Y-57499628D01*
X138591993Y-57515000D01*
X138395007Y-57515000D01*
X138317730Y-57499628D01*
X138201811Y-57476571D01*
X138019822Y-57401189D01*
X137856037Y-57291751D01*
X137716749Y-57152463D01*
X137607311Y-56988678D01*
X137531929Y-56806689D01*
X137493500Y-56613491D01*
X137493500Y-56416509D01*
X137531929Y-56223311D01*
X137607311Y-56041322D01*
X137716749Y-55877537D01*
X137856037Y-55738249D01*
X138019822Y-55628811D01*
X138201811Y-55553429D01*
X138317730Y-55530372D01*
X138395007Y-55515000D01*
X138591993Y-55515000D01*
X138669270Y-55530372D01*
X138669270Y-55530372D01*
G37*
G36*
X138669270Y-52990372D02*
X138785189Y-53013429D01*
X138967178Y-53088811D01*
X139130963Y-53198249D01*
X139270251Y-53337537D01*
X139379689Y-53501322D01*
X139455071Y-53683311D01*
X139493500Y-53876509D01*
X139493500Y-54073491D01*
X139455071Y-54266689D01*
X139379689Y-54448678D01*
X139270251Y-54612463D01*
X139130963Y-54751751D01*
X138967178Y-54861189D01*
X138785189Y-54936571D01*
X138669270Y-54959628D01*
X138591993Y-54975000D01*
X138395007Y-54975000D01*
X138317730Y-54959628D01*
X138201811Y-54936571D01*
X138019822Y-54861189D01*
X137856037Y-54751751D01*
X137716749Y-54612463D01*
X137607311Y-54448678D01*
X137531929Y-54266689D01*
X137493500Y-54073491D01*
X137493500Y-53876509D01*
X137531929Y-53683311D01*
X137607311Y-53501322D01*
X137716749Y-53337537D01*
X137856037Y-53198249D01*
X138019822Y-53088811D01*
X138201811Y-53013429D01*
X138317730Y-52990372D01*
X138395007Y-52975000D01*
X138591993Y-52975000D01*
X138669270Y-52990372D01*
X138669270Y-52990372D01*
G37*
G36*
X138669270Y-50450372D02*
X138785189Y-50473429D01*
X138967178Y-50548811D01*
X139130963Y-50658249D01*
X139270251Y-50797537D01*
X139379689Y-50961322D01*
X139455071Y-51143311D01*
X139493500Y-51336509D01*
X139493500Y-51533491D01*
X139455071Y-51726689D01*
X139379689Y-51908678D01*
X139270251Y-52072463D01*
X139130963Y-52211751D01*
X138967178Y-52321189D01*
X138785189Y-52396571D01*
X138669270Y-52419628D01*
X138591993Y-52435000D01*
X138395007Y-52435000D01*
X138317730Y-52419628D01*
X138201811Y-52396571D01*
X138019822Y-52321189D01*
X137856037Y-52211751D01*
X137716749Y-52072463D01*
X137607311Y-51908678D01*
X137531929Y-51726689D01*
X137493500Y-51533491D01*
X137493500Y-51336509D01*
X137531929Y-51143311D01*
X137607311Y-50961322D01*
X137716749Y-50797537D01*
X137856037Y-50658249D01*
X138019822Y-50548811D01*
X138201811Y-50473429D01*
X138317730Y-50450372D01*
X138395007Y-50435000D01*
X138591993Y-50435000D01*
X138669270Y-50450372D01*
X138669270Y-50450372D01*
G37*
G36*
X166362311Y-46610546D02*
X166365128Y-46611713D01*
X166530652Y-46680275D01*
X166530653Y-46680276D01*
X166682156Y-46781507D01*
X166810993Y-46910344D01*
X166810995Y-46910347D01*
X166912225Y-47061848D01*
X166938827Y-47126071D01*
X166981954Y-47230189D01*
X167017500Y-47408894D01*
X167017500Y-47591106D01*
X166981954Y-47769811D01*
X166981953Y-47769813D01*
X166912225Y-47938152D01*
X166912224Y-47938153D01*
X166810993Y-48089656D01*
X166682156Y-48218493D01*
X166682153Y-48218495D01*
X166530652Y-48319725D01*
X166412898Y-48368500D01*
X166362311Y-48389454D01*
X166183606Y-48425000D01*
X166001394Y-48425000D01*
X165822689Y-48389454D01*
X165772102Y-48368500D01*
X165654348Y-48319725D01*
X165502847Y-48218495D01*
X165502844Y-48218493D01*
X165374007Y-48089656D01*
X165272776Y-47938153D01*
X165272775Y-47938152D01*
X165203047Y-47769813D01*
X165203046Y-47769811D01*
X165167500Y-47591106D01*
X165167500Y-47408894D01*
X165203046Y-47230189D01*
X165246173Y-47126071D01*
X165272775Y-47061848D01*
X165374005Y-46910347D01*
X165374007Y-46910344D01*
X165502844Y-46781507D01*
X165654347Y-46680276D01*
X165654348Y-46680275D01*
X165819872Y-46611713D01*
X165822689Y-46610546D01*
X166001394Y-46575000D01*
X166183606Y-46575000D01*
X166362311Y-46610546D01*
X166362311Y-46610546D01*
G37*
G36*
X171362311Y-46610546D02*
X171365128Y-46611713D01*
X171530652Y-46680275D01*
X171530653Y-46680276D01*
X171682156Y-46781507D01*
X171810993Y-46910344D01*
X171810995Y-46910347D01*
X171912225Y-47061848D01*
X171938827Y-47126071D01*
X171981954Y-47230189D01*
X172017500Y-47408894D01*
X172017500Y-47591106D01*
X171981954Y-47769811D01*
X171981953Y-47769813D01*
X171912225Y-47938152D01*
X171912224Y-47938153D01*
X171810993Y-48089656D01*
X171682156Y-48218493D01*
X171682153Y-48218495D01*
X171530652Y-48319725D01*
X171412898Y-48368500D01*
X171362311Y-48389454D01*
X171183606Y-48425000D01*
X171001394Y-48425000D01*
X170822689Y-48389454D01*
X170772102Y-48368500D01*
X170654348Y-48319725D01*
X170502847Y-48218495D01*
X170502844Y-48218493D01*
X170374007Y-48089656D01*
X170272776Y-47938153D01*
X170272775Y-47938152D01*
X170203047Y-47769813D01*
X170203046Y-47769811D01*
X170167500Y-47591106D01*
X170167500Y-47408894D01*
X170203046Y-47230189D01*
X170246173Y-47126071D01*
X170272775Y-47061848D01*
X170374005Y-46910347D01*
X170374007Y-46910344D01*
X170502844Y-46781507D01*
X170654347Y-46680276D01*
X170654348Y-46680275D01*
X170819872Y-46611713D01*
X170822689Y-46610546D01*
X171001394Y-46575000D01*
X171183606Y-46575000D01*
X171362311Y-46610546D01*
X171362311Y-46610546D01*
G37*
G36*
X178241793Y-44543437D02*
X178596670Y-44690432D01*
X178916055Y-44903838D01*
X179187662Y-45175445D01*
X179401068Y-45494830D01*
X179548063Y-45849707D01*
X179623000Y-46226440D01*
X179623000Y-46610560D01*
X179548063Y-46987293D01*
X179401068Y-47342170D01*
X179187662Y-47661555D01*
X178916055Y-47933162D01*
X178596670Y-48146568D01*
X178241793Y-48293563D01*
X177865060Y-48368500D01*
X177480940Y-48368500D01*
X177104207Y-48293563D01*
X176749330Y-48146568D01*
X176429945Y-47933162D01*
X176158338Y-47661555D01*
X175944932Y-47342170D01*
X175797937Y-46987293D01*
X175723000Y-46610560D01*
X175723000Y-46226440D01*
X175797937Y-45849707D01*
X175944932Y-45494830D01*
X176158338Y-45175445D01*
X176429945Y-44903838D01*
X176749330Y-44690432D01*
X177104207Y-44543437D01*
X177480940Y-44468500D01*
X177865060Y-44468500D01*
X178241793Y-44543437D01*
X178241793Y-44543437D01*
G37*
G36*
X116646793Y-44543437D02*
X117001670Y-44690432D01*
X117321055Y-44903838D01*
X117592662Y-45175445D01*
X117806068Y-45494830D01*
X117953063Y-45849707D01*
X118028000Y-46226440D01*
X118028000Y-46610560D01*
X117953063Y-46987293D01*
X117806068Y-47342170D01*
X117592662Y-47661555D01*
X117321055Y-47933162D01*
X117001670Y-48146568D01*
X116646793Y-48293563D01*
X116270060Y-48368500D01*
X115885940Y-48368500D01*
X115509207Y-48293563D01*
X115154330Y-48146568D01*
X114834945Y-47933162D01*
X114563338Y-47661555D01*
X114349932Y-47342170D01*
X114202937Y-46987293D01*
X114128000Y-46610560D01*
X114128000Y-46226440D01*
X114202937Y-45849707D01*
X114349932Y-45494830D01*
X114563338Y-45175445D01*
X114834945Y-44903838D01*
X115154330Y-44690432D01*
X115509207Y-44543437D01*
X115885940Y-44468500D01*
X116270060Y-44468500D01*
X116646793Y-44543437D01*
X116646793Y-44543437D01*
G37*
G36*
X148156170Y-46157772D02*
X148272089Y-46180829D01*
X148454078Y-46256211D01*
X148617863Y-46365649D01*
X148757151Y-46504937D01*
X148866589Y-46668722D01*
X148941971Y-46850711D01*
X148980400Y-47043909D01*
X148980400Y-47240891D01*
X148941971Y-47434089D01*
X148866589Y-47616078D01*
X148757151Y-47779863D01*
X148617863Y-47919151D01*
X148454078Y-48028589D01*
X148272089Y-48103971D01*
X148156170Y-48127028D01*
X148078893Y-48142400D01*
X147881907Y-48142400D01*
X147804630Y-48127028D01*
X147688711Y-48103971D01*
X147506722Y-48028589D01*
X147342937Y-47919151D01*
X147203649Y-47779863D01*
X147094211Y-47616078D01*
X147018829Y-47434089D01*
X146980400Y-47240891D01*
X146980400Y-47043909D01*
X147018829Y-46850711D01*
X147094211Y-46668722D01*
X147203649Y-46504937D01*
X147342937Y-46365649D01*
X147506722Y-46256211D01*
X147688711Y-46180829D01*
X147804630Y-46157772D01*
X147881907Y-46142400D01*
X148078893Y-46142400D01*
X148156170Y-46157772D01*
X148156170Y-46157772D01*
G37*
G36*
X150696170Y-46157772D02*
X150812089Y-46180829D01*
X150994078Y-46256211D01*
X151157863Y-46365649D01*
X151297151Y-46504937D01*
X151406589Y-46668722D01*
X151481971Y-46850711D01*
X151520400Y-47043909D01*
X151520400Y-47240891D01*
X151481971Y-47434089D01*
X151406589Y-47616078D01*
X151297151Y-47779863D01*
X151157863Y-47919151D01*
X150994078Y-48028589D01*
X150812089Y-48103971D01*
X150696170Y-48127028D01*
X150618893Y-48142400D01*
X150421907Y-48142400D01*
X150344630Y-48127028D01*
X150228711Y-48103971D01*
X150046722Y-48028589D01*
X149882937Y-47919151D01*
X149743649Y-47779863D01*
X149634211Y-47616078D01*
X149558829Y-47434089D01*
X149520400Y-47240891D01*
X149520400Y-47043909D01*
X149558829Y-46850711D01*
X149634211Y-46668722D01*
X149743649Y-46504937D01*
X149882937Y-46365649D01*
X150046722Y-46256211D01*
X150228711Y-46180829D01*
X150344630Y-46157772D01*
X150421907Y-46142400D01*
X150618893Y-46142400D01*
X150696170Y-46157772D01*
X150696170Y-46157772D01*
G37*
G36*
X145616170Y-46157772D02*
X145732089Y-46180829D01*
X145914078Y-46256211D01*
X146077863Y-46365649D01*
X146217151Y-46504937D01*
X146326589Y-46668722D01*
X146401971Y-46850711D01*
X146440400Y-47043909D01*
X146440400Y-47240891D01*
X146401971Y-47434089D01*
X146326589Y-47616078D01*
X146217151Y-47779863D01*
X146077863Y-47919151D01*
X145914078Y-48028589D01*
X145732089Y-48103971D01*
X145616170Y-48127028D01*
X145538893Y-48142400D01*
X145341907Y-48142400D01*
X145264630Y-48127028D01*
X145148711Y-48103971D01*
X144966722Y-48028589D01*
X144802937Y-47919151D01*
X144663649Y-47779863D01*
X144554211Y-47616078D01*
X144478829Y-47434089D01*
X144440400Y-47240891D01*
X144440400Y-47043909D01*
X144478829Y-46850711D01*
X144554211Y-46668722D01*
X144663649Y-46504937D01*
X144802937Y-46365649D01*
X144966722Y-46256211D01*
X145148711Y-46180829D01*
X145264630Y-46157772D01*
X145341907Y-46142400D01*
X145538893Y-46142400D01*
X145616170Y-46157772D01*
X145616170Y-46157772D01*
G37*
G36*
X143076170Y-46157772D02*
X143192089Y-46180829D01*
X143374078Y-46256211D01*
X143537863Y-46365649D01*
X143677151Y-46504937D01*
X143786589Y-46668722D01*
X143861971Y-46850711D01*
X143900400Y-47043909D01*
X143900400Y-47240891D01*
X143861971Y-47434089D01*
X143786589Y-47616078D01*
X143677151Y-47779863D01*
X143537863Y-47919151D01*
X143374078Y-48028589D01*
X143192089Y-48103971D01*
X143076170Y-48127028D01*
X142998893Y-48142400D01*
X142801907Y-48142400D01*
X142724630Y-48127028D01*
X142608711Y-48103971D01*
X142426722Y-48028589D01*
X142262937Y-47919151D01*
X142123649Y-47779863D01*
X142014211Y-47616078D01*
X141938829Y-47434089D01*
X141900400Y-47240891D01*
X141900400Y-47043909D01*
X141938829Y-46850711D01*
X142014211Y-46668722D01*
X142123649Y-46504937D01*
X142262937Y-46365649D01*
X142426722Y-46256211D01*
X142608711Y-46180829D01*
X142724630Y-46157772D01*
X142801907Y-46142400D01*
X142998893Y-46142400D01*
X143076170Y-46157772D01*
X143076170Y-46157772D01*
G37*
G36*
X123175270Y-45179872D02*
X123291189Y-45202929D01*
X123473178Y-45278311D01*
X123636963Y-45387749D01*
X123776251Y-45527037D01*
X123885689Y-45690822D01*
X123961071Y-45872811D01*
X123999500Y-46066009D01*
X123999500Y-46262991D01*
X123961071Y-46456189D01*
X123885689Y-46638178D01*
X123776251Y-46801963D01*
X123636963Y-46941251D01*
X123473178Y-47050689D01*
X123291189Y-47126071D01*
X123175270Y-47149128D01*
X123097993Y-47164500D01*
X122901007Y-47164500D01*
X122823730Y-47149128D01*
X122707811Y-47126071D01*
X122525822Y-47050689D01*
X122362037Y-46941251D01*
X122222749Y-46801963D01*
X122113311Y-46638178D01*
X122037929Y-46456189D01*
X121999500Y-46262991D01*
X121999500Y-46066009D01*
X122037929Y-45872811D01*
X122113311Y-45690822D01*
X122222749Y-45527037D01*
X122362037Y-45387749D01*
X122525822Y-45278311D01*
X122707811Y-45202929D01*
X122823730Y-45179872D01*
X122901007Y-45164500D01*
X123097993Y-45164500D01*
X123175270Y-45179872D01*
X123175270Y-45179872D01*
G37*
G36*
X125715270Y-45179872D02*
X125831189Y-45202929D01*
X126013178Y-45278311D01*
X126176963Y-45387749D01*
X126316251Y-45527037D01*
X126425689Y-45690822D01*
X126501071Y-45872811D01*
X126539500Y-46066009D01*
X126539500Y-46262991D01*
X126501071Y-46456189D01*
X126425689Y-46638178D01*
X126316251Y-46801963D01*
X126176963Y-46941251D01*
X126013178Y-47050689D01*
X125831189Y-47126071D01*
X125715270Y-47149128D01*
X125637993Y-47164500D01*
X125441007Y-47164500D01*
X125363730Y-47149128D01*
X125247811Y-47126071D01*
X125065822Y-47050689D01*
X124902037Y-46941251D01*
X124762749Y-46801963D01*
X124653311Y-46638178D01*
X124577929Y-46456189D01*
X124539500Y-46262991D01*
X124539500Y-46066009D01*
X124577929Y-45872811D01*
X124653311Y-45690822D01*
X124762749Y-45527037D01*
X124902037Y-45387749D01*
X125065822Y-45278311D01*
X125247811Y-45202929D01*
X125363730Y-45179872D01*
X125441007Y-45164500D01*
X125637993Y-45164500D01*
X125715270Y-45179872D01*
X125715270Y-45179872D01*
G37*
G36*
X128255270Y-45179872D02*
X128371189Y-45202929D01*
X128553178Y-45278311D01*
X128716963Y-45387749D01*
X128856251Y-45527037D01*
X128965689Y-45690822D01*
X129041071Y-45872811D01*
X129079500Y-46066009D01*
X129079500Y-46262991D01*
X129041071Y-46456189D01*
X128965689Y-46638178D01*
X128856251Y-46801963D01*
X128716963Y-46941251D01*
X128553178Y-47050689D01*
X128371189Y-47126071D01*
X128255270Y-47149128D01*
X128177993Y-47164500D01*
X127981007Y-47164500D01*
X127903730Y-47149128D01*
X127787811Y-47126071D01*
X127605822Y-47050689D01*
X127442037Y-46941251D01*
X127302749Y-46801963D01*
X127193311Y-46638178D01*
X127117929Y-46456189D01*
X127079500Y-46262991D01*
X127079500Y-46066009D01*
X127117929Y-45872811D01*
X127193311Y-45690822D01*
X127302749Y-45527037D01*
X127442037Y-45387749D01*
X127605822Y-45278311D01*
X127787811Y-45202929D01*
X127903730Y-45179872D01*
X127981007Y-45164500D01*
X128177993Y-45164500D01*
X128255270Y-45179872D01*
X128255270Y-45179872D01*
G37*
G36*
X154943357Y-44852772D02*
X155143542Y-44935691D01*
X155323713Y-45056078D01*
X155476922Y-45209287D01*
X155476924Y-45209290D01*
X155476925Y-45209291D01*
X155542098Y-45306829D01*
X155597309Y-45389458D01*
X155680228Y-45589643D01*
X155722500Y-45802158D01*
X155722500Y-46018842D01*
X155680228Y-46231357D01*
X155597309Y-46431542D01*
X155597307Y-46431545D01*
X155477693Y-46610560D01*
X155476922Y-46611713D01*
X155323713Y-46764922D01*
X155323710Y-46764924D01*
X155323709Y-46764925D01*
X155268273Y-46801966D01*
X155143542Y-46885309D01*
X154943357Y-46968228D01*
X154730842Y-47010500D01*
X154514158Y-47010500D01*
X154301643Y-46968228D01*
X154101458Y-46885309D01*
X153976727Y-46801966D01*
X153921291Y-46764925D01*
X153921290Y-46764924D01*
X153921287Y-46764922D01*
X153768078Y-46611713D01*
X153767308Y-46610560D01*
X153647693Y-46431545D01*
X153647691Y-46431542D01*
X153564772Y-46231357D01*
X153522500Y-46018842D01*
X153522500Y-45802158D01*
X153564772Y-45589643D01*
X153647691Y-45389458D01*
X153702902Y-45306829D01*
X153768075Y-45209291D01*
X153768076Y-45209290D01*
X153768078Y-45209287D01*
X153921287Y-45056078D01*
X154101458Y-44935691D01*
X154301643Y-44852772D01*
X154514158Y-44810500D01*
X154730842Y-44810500D01*
X154943357Y-44852772D01*
X154943357Y-44852772D01*
G37*
G36*
X161547357Y-44852772D02*
X161747542Y-44935691D01*
X161927713Y-45056078D01*
X162080922Y-45209287D01*
X162080924Y-45209290D01*
X162080925Y-45209291D01*
X162146098Y-45306829D01*
X162201309Y-45389458D01*
X162284228Y-45589643D01*
X162326500Y-45802158D01*
X162326500Y-46018842D01*
X162284228Y-46231357D01*
X162201309Y-46431542D01*
X162201307Y-46431545D01*
X162081693Y-46610560D01*
X162080922Y-46611713D01*
X161927713Y-46764922D01*
X161927710Y-46764924D01*
X161927709Y-46764925D01*
X161872273Y-46801966D01*
X161747542Y-46885309D01*
X161547357Y-46968228D01*
X161334842Y-47010500D01*
X161118158Y-47010500D01*
X160905643Y-46968228D01*
X160705458Y-46885309D01*
X160580727Y-46801966D01*
X160525291Y-46764925D01*
X160525290Y-46764924D01*
X160525287Y-46764922D01*
X160372078Y-46611713D01*
X160371308Y-46610560D01*
X160251693Y-46431545D01*
X160251691Y-46431542D01*
X160168772Y-46231357D01*
X160126500Y-46018842D01*
X160126500Y-45802158D01*
X160168772Y-45589643D01*
X160251691Y-45389458D01*
X160306902Y-45306829D01*
X160372075Y-45209291D01*
X160372076Y-45209290D01*
X160372078Y-45209287D01*
X160525287Y-45056078D01*
X160705458Y-44935691D01*
X160905643Y-44852772D01*
X161118158Y-44810500D01*
X161334842Y-44810500D01*
X161547357Y-44852772D01*
X161547357Y-44852772D01*
G37*
G36*
X172249326Y-43661576D02*
X172324726Y-43684448D01*
X172400128Y-43707321D01*
X172539104Y-43781606D01*
X172539106Y-43781607D01*
X172539105Y-43781607D01*
X172660922Y-43881578D01*
X172660923Y-43881580D01*
X172660925Y-43881581D01*
X172760892Y-44003392D01*
X172835179Y-44142371D01*
X172880924Y-44293174D01*
X172892500Y-44410705D01*
X172892500Y-45189295D01*
X172880924Y-45306826D01*
X172835179Y-45457629D01*
X172760892Y-45596608D01*
X172660922Y-45718422D01*
X172539108Y-45818392D01*
X172400129Y-45892679D01*
X172324728Y-45915551D01*
X172249327Y-45938424D01*
X172092500Y-45953870D01*
X171935674Y-45938424D01*
X171860273Y-45915551D01*
X171784872Y-45892679D01*
X171645893Y-45818392D01*
X171524079Y-45718422D01*
X171424109Y-45596608D01*
X171349821Y-45457626D01*
X171304076Y-45306829D01*
X171292500Y-45189295D01*
X171292500Y-44410706D01*
X171304076Y-44293175D01*
X171304077Y-44293173D01*
X171326948Y-44217774D01*
X171349821Y-44142372D01*
X171424106Y-44003396D01*
X171524076Y-43881581D01*
X171524078Y-43881578D01*
X171524080Y-43881577D01*
X171524081Y-43881575D01*
X171645892Y-43781608D01*
X171784871Y-43707321D01*
X171860273Y-43684448D01*
X171935673Y-43661576D01*
X172092500Y-43646130D01*
X172249326Y-43661576D01*
X172249326Y-43661576D01*
G37*
G36*
X165249327Y-43661576D02*
X165324727Y-43684448D01*
X165400129Y-43707321D01*
X165539108Y-43781608D01*
X165660922Y-43881578D01*
X165760892Y-44003392D01*
X165835179Y-44142371D01*
X165880924Y-44293174D01*
X165892500Y-44410705D01*
X165892500Y-45189295D01*
X165880924Y-45306826D01*
X165835179Y-45457629D01*
X165760892Y-45596608D01*
X165660925Y-45718419D01*
X165660923Y-45718420D01*
X165660922Y-45718422D01*
X165660918Y-45718425D01*
X165539104Y-45818394D01*
X165400128Y-45892679D01*
X165324727Y-45915551D01*
X165249326Y-45938424D01*
X165092500Y-45953870D01*
X164935673Y-45938424D01*
X164860272Y-45915551D01*
X164784871Y-45892679D01*
X164645892Y-45818392D01*
X164524081Y-45718425D01*
X164524080Y-45718423D01*
X164524078Y-45718422D01*
X164424107Y-45596605D01*
X164424106Y-45596604D01*
X164349821Y-45457628D01*
X164304077Y-45306829D01*
X164304076Y-45306826D01*
X164292500Y-45189292D01*
X164292500Y-44410707D01*
X164304076Y-44293173D01*
X164304076Y-44293171D01*
X164349821Y-44142374D01*
X164424109Y-44003392D01*
X164524079Y-43881578D01*
X164645893Y-43781608D01*
X164784872Y-43707321D01*
X164860274Y-43684448D01*
X164935674Y-43661576D01*
X165092500Y-43646130D01*
X165249327Y-43661576D01*
X165249327Y-43661576D01*
G37*
M02*
