G04 #@! TF.GenerationSoftware,KiCad,Pcbnew,5.0.2+dfsg1-1~bpo9+1*
G04 #@! TF.CreationDate,2019-01-08T10:19:29+00:00*
G04 #@! TF.ProjectId,zeroboy_new_back,7a65726f-626f-4795-9f6e-65775f626163,rev?*
G04 #@! TF.SameCoordinates,Original*
G04 #@! TF.FileFunction,Legend,Bot*
G04 #@! TF.FilePolarity,Positive*
%FSLAX46Y46*%
G04 Gerber Fmt 4.6, Leading zero omitted, Abs format (unit mm)*
G04 Created by KiCad (PCBNEW 5.0.2+dfsg1-1~bpo9+1) date Tue 08 Jan 2019 10:19:29 GMT*
%MOMM*%
%LPD*%
G01*
G04 APERTURE LIST*
%ADD10C,0.300000*%
%ADD11C,0.150000*%
G04 APERTURE END LIST*
D10*
X151570000Y-102024571D02*
X152070000Y-101310285D01*
X152427142Y-102024571D02*
X152427142Y-100524571D01*
X151855714Y-100524571D01*
X151712857Y-100596000D01*
X151641428Y-100667428D01*
X151570000Y-100810285D01*
X151570000Y-101024571D01*
X151641428Y-101167428D01*
X151712857Y-101238857D01*
X151855714Y-101310285D01*
X152427142Y-101310285D01*
X150355714Y-101953142D02*
X150498571Y-102024571D01*
X150784285Y-102024571D01*
X150927142Y-101953142D01*
X150998571Y-101810285D01*
X150998571Y-101238857D01*
X150927142Y-101096000D01*
X150784285Y-101024571D01*
X150498571Y-101024571D01*
X150355714Y-101096000D01*
X150284285Y-101238857D01*
X150284285Y-101381714D01*
X150998571Y-101524571D01*
X149855714Y-101024571D02*
X149284285Y-101024571D01*
X149641428Y-100524571D02*
X149641428Y-101810285D01*
X149570000Y-101953142D01*
X149427142Y-102024571D01*
X149284285Y-102024571D01*
X148784285Y-102024571D02*
X148784285Y-101024571D01*
X148784285Y-101310285D02*
X148712857Y-101167428D01*
X148641428Y-101096000D01*
X148498571Y-101024571D01*
X148355714Y-101024571D01*
X147641428Y-102024571D02*
X147784285Y-101953142D01*
X147855714Y-101881714D01*
X147927142Y-101738857D01*
X147927142Y-101310285D01*
X147855714Y-101167428D01*
X147784285Y-101096000D01*
X147641428Y-101024571D01*
X147427142Y-101024571D01*
X147284285Y-101096000D01*
X147212857Y-101167428D01*
X147141428Y-101310285D01*
X147141428Y-101738857D01*
X147212857Y-101881714D01*
X147284285Y-101953142D01*
X147427142Y-102024571D01*
X147641428Y-102024571D01*
X146641428Y-100524571D02*
X145641428Y-100524571D01*
X146641428Y-102024571D01*
X145641428Y-102024571D01*
X144498571Y-101953142D02*
X144641428Y-102024571D01*
X144927142Y-102024571D01*
X145070000Y-101953142D01*
X145141428Y-101810285D01*
X145141428Y-101238857D01*
X145070000Y-101096000D01*
X144927142Y-101024571D01*
X144641428Y-101024571D01*
X144498571Y-101096000D01*
X144427142Y-101238857D01*
X144427142Y-101381714D01*
X145141428Y-101524571D01*
X143784285Y-102024571D02*
X143784285Y-101024571D01*
X143784285Y-101310285D02*
X143712857Y-101167428D01*
X143641428Y-101096000D01*
X143498571Y-101024571D01*
X143355714Y-101024571D01*
X142641428Y-102024571D02*
X142784285Y-101953142D01*
X142855714Y-101881714D01*
X142927142Y-101738857D01*
X142927142Y-101310285D01*
X142855714Y-101167428D01*
X142784285Y-101096000D01*
X142641428Y-101024571D01*
X142427142Y-101024571D01*
X142284285Y-101096000D01*
X142212857Y-101167428D01*
X142141428Y-101310285D01*
X142141428Y-101738857D01*
X142212857Y-101881714D01*
X142284285Y-101953142D01*
X142427142Y-102024571D01*
X142641428Y-102024571D01*
X156379428Y-98444857D02*
X156879428Y-98444857D01*
X156879428Y-99230571D02*
X156879428Y-97730571D01*
X156165142Y-97730571D01*
X154950857Y-99230571D02*
X154950857Y-98444857D01*
X155022285Y-98302000D01*
X155165142Y-98230571D01*
X155450857Y-98230571D01*
X155593714Y-98302000D01*
X154950857Y-99159142D02*
X155093714Y-99230571D01*
X155450857Y-99230571D01*
X155593714Y-99159142D01*
X155665142Y-99016285D01*
X155665142Y-98873428D01*
X155593714Y-98730571D01*
X155450857Y-98659142D01*
X155093714Y-98659142D01*
X154950857Y-98587714D01*
X153593714Y-99159142D02*
X153736571Y-99230571D01*
X154022285Y-99230571D01*
X154165142Y-99159142D01*
X154236571Y-99087714D01*
X154308000Y-98944857D01*
X154308000Y-98516285D01*
X154236571Y-98373428D01*
X154165142Y-98302000D01*
X154022285Y-98230571D01*
X153736571Y-98230571D01*
X153593714Y-98302000D01*
X152379428Y-99159142D02*
X152522285Y-99230571D01*
X152808000Y-99230571D01*
X152950857Y-99159142D01*
X153022285Y-99016285D01*
X153022285Y-98444857D01*
X152950857Y-98302000D01*
X152808000Y-98230571D01*
X152522285Y-98230571D01*
X152379428Y-98302000D01*
X152308000Y-98444857D01*
X152308000Y-98587714D01*
X153022285Y-98730571D01*
X151450857Y-99230571D02*
X151593714Y-99159142D01*
X151665142Y-99016285D01*
X151665142Y-97730571D01*
X150308000Y-99159142D02*
X150450857Y-99230571D01*
X150736571Y-99230571D01*
X150879428Y-99159142D01*
X150950857Y-99016285D01*
X150950857Y-98444857D01*
X150879428Y-98302000D01*
X150736571Y-98230571D01*
X150450857Y-98230571D01*
X150308000Y-98302000D01*
X150236571Y-98444857D01*
X150236571Y-98587714D01*
X150950857Y-98730571D01*
X149665142Y-99159142D02*
X149522285Y-99230571D01*
X149236571Y-99230571D01*
X149093714Y-99159142D01*
X149022285Y-99016285D01*
X149022285Y-98944857D01*
X149093714Y-98802000D01*
X149236571Y-98730571D01*
X149450857Y-98730571D01*
X149593714Y-98659142D01*
X149665142Y-98516285D01*
X149665142Y-98444857D01*
X149593714Y-98302000D01*
X149450857Y-98230571D01*
X149236571Y-98230571D01*
X149093714Y-98302000D01*
X148450857Y-99159142D02*
X148308000Y-99230571D01*
X148022285Y-99230571D01*
X147879428Y-99159142D01*
X147808000Y-99016285D01*
X147808000Y-98944857D01*
X147879428Y-98802000D01*
X148022285Y-98730571D01*
X148236571Y-98730571D01*
X148379428Y-98659142D01*
X148450857Y-98516285D01*
X148450857Y-98444857D01*
X148379428Y-98302000D01*
X148236571Y-98230571D01*
X148022285Y-98230571D01*
X147879428Y-98302000D01*
X147379428Y-98230571D02*
X146808000Y-98230571D01*
X147165142Y-97730571D02*
X147165142Y-99016285D01*
X147093714Y-99159142D01*
X146950857Y-99230571D01*
X146808000Y-99230571D01*
X145736571Y-99159142D02*
X145879428Y-99230571D01*
X146165142Y-99230571D01*
X146308000Y-99159142D01*
X146379428Y-99016285D01*
X146379428Y-98444857D01*
X146308000Y-98302000D01*
X146165142Y-98230571D01*
X145879428Y-98230571D01*
X145736571Y-98302000D01*
X145665142Y-98444857D01*
X145665142Y-98587714D01*
X146379428Y-98730571D01*
X144379428Y-99159142D02*
X144522285Y-99230571D01*
X144808000Y-99230571D01*
X144950857Y-99159142D01*
X145022285Y-99087714D01*
X145093714Y-98944857D01*
X145093714Y-98516285D01*
X145022285Y-98373428D01*
X144950857Y-98302000D01*
X144808000Y-98230571D01*
X144522285Y-98230571D01*
X144379428Y-98302000D01*
X143736571Y-99230571D02*
X143736571Y-97730571D01*
X143093714Y-99230571D02*
X143093714Y-98444857D01*
X143165142Y-98302000D01*
X143308000Y-98230571D01*
X143522285Y-98230571D01*
X143665142Y-98302000D01*
X143736571Y-98373428D01*
X141308000Y-97873428D02*
X141236571Y-97802000D01*
X141093714Y-97730571D01*
X140736571Y-97730571D01*
X140593714Y-97802000D01*
X140522285Y-97873428D01*
X140450857Y-98016285D01*
X140450857Y-98159142D01*
X140522285Y-98373428D01*
X141379428Y-99230571D01*
X140450857Y-99230571D01*
X139522285Y-97730571D02*
X139379428Y-97730571D01*
X139236571Y-97802000D01*
X139165142Y-97873428D01*
X139093714Y-98016285D01*
X139022285Y-98302000D01*
X139022285Y-98659142D01*
X139093714Y-98944857D01*
X139165142Y-99087714D01*
X139236571Y-99159142D01*
X139379428Y-99230571D01*
X139522285Y-99230571D01*
X139665142Y-99159142D01*
X139736571Y-99087714D01*
X139808000Y-98944857D01*
X139879428Y-98659142D01*
X139879428Y-98302000D01*
X139808000Y-98016285D01*
X139736571Y-97873428D01*
X139665142Y-97802000D01*
X139522285Y-97730571D01*
X137593714Y-99230571D02*
X138450857Y-99230571D01*
X138022285Y-99230571D02*
X138022285Y-97730571D01*
X138165142Y-97944857D01*
X138308000Y-98087714D01*
X138450857Y-98159142D01*
X136879428Y-99230571D02*
X136593714Y-99230571D01*
X136450857Y-99159142D01*
X136379428Y-99087714D01*
X136236571Y-98873428D01*
X136165142Y-98587714D01*
X136165142Y-98016285D01*
X136236571Y-97873428D01*
X136308000Y-97802000D01*
X136450857Y-97730571D01*
X136736571Y-97730571D01*
X136879428Y-97802000D01*
X136950857Y-97873428D01*
X137022285Y-98016285D01*
X137022285Y-98373428D01*
X136950857Y-98516285D01*
X136879428Y-98587714D01*
X136736571Y-98659142D01*
X136450857Y-98659142D01*
X136308000Y-98587714D01*
X136236571Y-98516285D01*
X136165142Y-98373428D01*
D11*
G04 #@! TO.C,SW3*
X150685500Y-95948500D02*
X156654500Y-95948500D01*
X156654500Y-95948500D02*
X156654500Y-89979500D01*
X156654500Y-89979500D02*
X150685500Y-89979500D01*
X150685500Y-89979500D02*
X150685500Y-95948500D01*
G04 #@! TO.C,SW4*
X137223500Y-89979500D02*
X137223500Y-95948500D01*
X143192500Y-89979500D02*
X137223500Y-89979500D01*
X143192500Y-95948500D02*
X143192500Y-89979500D01*
X137223500Y-95948500D02*
X143192500Y-95948500D01*
G04 #@! TD*
M02*
